<svg xmlns="http://www.w3.org/2000/svg" xmlns:xlink="http://www.w3.org/1999/xlink" width="1921.305" height="1083.851" viewBox="0 0 1921.305 1083.851">
  <defs>
    <linearGradient id="linear-gradient" x1="0.5" y1="1" x2="0.5" gradientUnits="objectBoundingBox">
      <stop offset="0" stop-color="gray" stop-opacity="0.251"/>
      <stop offset="0.54" stop-color="gray" stop-opacity="0.122"/>
      <stop offset="1" stop-color="gray" stop-opacity="0.102"/>
    </linearGradient>
  </defs>
  <g id="Group_19" data-name="Group 19" transform="translate(0 2)">
    <g id="Rectangle_73" data-name="Rectangle 73" transform="translate(121 93)" fill="#fff" stroke="#707070" stroke-width="1" opacity="0.96">
      <rect width="1582" height="709" stroke="none"/>
      <rect x="0.5" y="0.5" width="1581" height="708" fill="none"/>
    </g>
    <g id="Path_586" data-name="Path 586" transform="translate(1402.191 -2)" fill="rgba(19,78,244,0.4)">
      <path d="M 518.6127319335938 1080.842529296875 L 42.40458679199219 818.0443115234375 L 322.3982849121094 818.0443115234375 L 322.8982849121094 818.0443115234375 L 322.8982849121094 817.5443115234375 L 322.8982849121094 403.7925720214844 L 322.8982849121094 403.4072265625 L 322.5257568359375 403.3091125488281 L -531.1886596679688 178.3494873046875 L -566.7019653320312 149.3641052246094 L -566.7019653320312 0.5000373721122742 L 517.6611328125 0.5000373721122742 L 518.6127319335938 1080.842529296875 Z" stroke="none"/>
      <path d="M -566.201904296875 1 L -566.201904296875 149.126708984375 L -530.95654296875 177.8936767578125 L 322.6530151367188 402.8256225585938 L 323.3982238769531 403.0219116210938 L 323.3982238769531 403.7925415039062 L 323.3982238769531 817.5443115234375 L 323.3982238769531 818.5443115234375 L 322.3982238769531 818.5443115234375 L 44.34535217285156 818.5443115234375 L 518.112060546875 1079.9951171875 L 517.16162109375 1 L -566.201904296875 1 M -567.201904296875 0 L 518.1607666015625 0 L 519.113525390625 1081.68994140625 L 40.46367645263672 817.5443115234375 L 322.3982238769531 817.5443115234375 L 322.3982238769531 403.7925415039062 L -531.4208984375 178.8053588867188 L -567.201904296875 149.6012573242188 L -567.201904296875 0 Z" stroke="none" fill="#707070"/>
    </g>
    <g id="Path_587" data-name="Path 587" transform="translate(0 843)" fill="rgba(19,78,244,0.4)">
      <path d="M 338.5250244140625 236.5000152587891 L 0.5 236.5000152587891 L 0.5 -22.41886138916016 L 338.5250244140625 236.5000152587891 Z" stroke="none"/>
      <path d="M 1 -21.40602111816406 L 1 236 L 337.0499877929688 236 L 1 -21.40602111816406 M 0 -23.431640625 L 340 237 L 0 237 L 0 -23.431640625 Z" stroke="none" fill="#707070"/>
    </g>
    <g id="undraw_book_lover_mkck" transform="translate(1308.62 168.992)">
      <path id="Path_588" data-name="Path 588" d="M306.258,115.539c-22.55-.931-44.031-9.576-64.539-19.036S200.9,76.561,178.887,71.549c-14.157-3.224-30.348-3.679-41.752,5.334-10.979,8.69-14.526,23.65-16.432,37.547-1.436,10.453-2.279,21.453,1.655,31.24,2.728,6.8,7.575,12.506,10.923,19.036,11.662,22.645,3.422,50.57-9.216,72.681-5.923,10.375-12.8,20.278-17.376,31.31S100,292.389,104,303.654c3.969,11.173,13.421,19.549,23.658,25.446,20.8,11.98,45.3,15.407,69.2,17.348,52.9,4.3,106.083,2.438,159.124.575,19.63-.691,39.345-1.391,58.654-4.995,10.725-2,21.794-5.177,29.582-12.849,9.881-9.737,12.331-26.228,5.711-38.436-11.111-20.48-41.811-25.566-49.588-47.549-4.272-12.1.118-25.57,6.327-36.794,13.324-24.068,35.655-45.186,36.832-72.7.808-18.9-9.93-37.82-26.529-46.763-17.4-9.406-41.529-8.215-54.358,7.3C349.394,110.226,326.167,116.359,306.258,115.539Z" transform="translate(-97.25 -58.667)" fill="#6c63ff" opacity="0.1"/>
      <path id="Path_589" data-name="Path 589" d="M190.27,519.092,71.01,518.4,59.16,485.39l41.9-3.613-7.3-36.193,82.877-12.758L97.275,400.058l7.01-1.978L231.9,422.806l-7.028,56.484-10.045,31.041Z" transform="translate(-38.547 -233.339)" fill="#6c63ff"/>
      <path id="Path_590" data-name="Path 590" d="M187,698.649s7.317-1.391,11.707,4.751c0,0-3.219,3.013-10.146-1.159Z" transform="translate(-152.708 -427.413)" fill="#6c63ff"/>
      <path id="Path_591" data-name="Path 591" d="M179.179,698.51s-4.669,6.824-2.369,14.422c0,0,3.8-1.808,4.219-11.02Z" transform="translate(-145.653 -427.41)" fill="#6c63ff"/>
      <path id="Path_592" data-name="Path 592" d="M172.76,668.274s2.927-6.377,14.634,2.549a6.528,6.528,0,0,1-6.732,3.94C175.492,674.415,174.126,671.634,172.76,668.274Z" transform="translate(-143.429 -408.393)" fill="#6c63ff"/>
      <path id="Path_593" data-name="Path 593" d="M158.132,670.28s-6.073-.828-6.662,15.684c0,0,3.85.948,6.585-4.275S159.669,673.537,158.132,670.28Z" transform="translate(-129.557 -410.859)" fill="#6c63ff"/>
      <path id="Path_594" data-name="Path 594" d="M160.44,629.8s3.415-11.24,15.8-3.244c0,0-2.829,10.313-14.536,7.068Z" transform="translate(-135.402 -383.548)" fill="#6c63ff"/>
      <path id="Path_595" data-name="Path 595" d="M149.52,590.351s6.439-11.355,17.853-.828c0,0-4,10.66-16.878,4.867Z" transform="translate(-128.287 -360.903)" fill="#6c63ff"/>
      <path id="Path_596" data-name="Path 596" d="M145.6,552.652s7.512-10.433,18.815,0c0,0-7.122,9.154-18.815,2.665Z" transform="translate(-125.733 -339.195)" fill="#6c63ff"/>
      <path id="Path_597" data-name="Path 597" d="M142.24,514.583s7.61-10.892,18.439-.579c0,0-8.585,9.617-18.439,3.129Z" transform="translate(-123.543 -316.657)" fill="#6c63ff"/>
      <path id="Path_598" data-name="Path 598" d="M144.2,477.291s8.014-14.021,18.146-4.519c0,0-8.585,12.051-18.146,7.184Z" transform="translate(-124.82 -293.153)" fill="#6c63ff"/>
      <path id="Path_599" data-name="Path 599" d="M149.52,439.158s8.488-13.9,18.341-3.244c0,0-10.049,12.051-18.341,5.794Z" transform="translate(-128.287 -271.126)" fill="#6c63ff"/>
      <path id="Path_600" data-name="Path 600" d="M156.819,401.787s10.049-13.069,18.815-7.863c0,0-10.47,13.88-19.254,11.331Z" transform="translate(-132.757 -248.153)" fill="#6c63ff"/>
      <path id="Path_601" data-name="Path 601" d="M166.182,365.032s11.6-16.007,18.341-10.66c0,0-8.543,12.415-19.164,13.656Z" transform="translate(-138.608 -225.046)" fill="#6c63ff"/>
      <path id="Path_602" data-name="Path 602" d="M179.722,328.781s10.15-13.069,17.564-9.824c0,0-8.683,13.557-18.927,13.9Z" transform="translate(-147.078 -204.624)" fill="#6c63ff"/>
      <path id="Path_603" data-name="Path 603" d="M194.528,292.675s11.219-12.514,16.1-10.313c0,0-8.1,13.9-16.585,13.094Z" transform="translate(-157.295 -183.324)" fill="#6c63ff"/>
      <path id="Path_604" data-name="Path 604" d="M208.32,254.982s9.658-14.952,14.93-13.793c0,0-5.857,13.329-14.93,15.312Z" transform="translate(-166.599 -159.305)" fill="#6c63ff"/>
      <path id="Path_605" data-name="Path 605" d="M221.642,213.864s8.536-11.459,13.15-11.434c0,0-6.739,15.312-13.5,15.171Z" transform="translate(-175.05 -136.623)" fill="#6c63ff"/>
      <path id="Path_606" data-name="Path 606" d="M228.619,166.59l8.247-23.87s.411,21.577-9.3,28.3Z" transform="translate(-179.142 -101.622)" fill="#6c63ff"/>
      <path id="Path_607" data-name="Path 607" d="M240.086,106.256s1.366-19.934.488-21.556c0,0,5.9,16.574-.544,30.363Z" transform="translate(-187.26 -67.613)" fill="#6c63ff"/>
      <path id="Path_608" data-name="Path 608" d="M133.177,636.016s-8.55-6.294-14.087,9.1c0,0,7.61,6,15.094-5.177Z" transform="translate(-108.459 -390.032)" fill="#6c63ff"/>
      <path id="Path_609" data-name="Path 609" d="M119.6,594.93s-10.488-5.682-15.575,10.4c0,0,8.1,6.621,16.529-6.332Z" transform="translate(-98.647 -366.124)" fill="#6c63ff"/>
      <path id="Path_610" data-name="Path 610" d="M109.015,554.962s-7.512-10.433-18.815,0c0,0,7.122,9.154,18.815,2.665Z" transform="translate(-89.636 -340.549)" fill="#6c63ff"/>
      <path id="Path_611" data-name="Path 611" d="M107.019,514.583S99.409,503.691,88.58,514c0,0,8.585,9.617,18.439,3.129Z" transform="translate(-88.58 -316.657)" fill="#6c63ff"/>
      <path id="Path_612" data-name="Path 612" d="M112.521,474.261s-5.338-15.7-16.941-8.951c0,0,6.272,13.925,16.467,11.558Z" transform="translate(-93.141 -289.727)" fill="#6c63ff"/>
      <path id="Path_613" data-name="Path 613" d="M119.523,434.344s-5.307-15.978-17.073-8.57c0,0,7.206,14.645,16.55,11.037Z" transform="translate(-97.617 -266.392)" fill="#6c63ff"/>
      <path id="Path_614" data-name="Path 614" d="M138.737,387.816S136.646,370.3,126.89,368.73c0,0,2.07,18.473,10.533,22.243Z" transform="translate(-113.542 -234.103)" fill="#6c63ff"/>
      <path id="Path_615" data-name="Path 615" d="M151.821,350.822s-.815-21.105-8.881-21.842c0,0,.272,16.019,7.972,24.83Z" transform="translate(-123.999 -210.803)" fill="#6c63ff"/>
      <path id="Path_616" data-name="Path 616" d="M165.774,314.1s-2.4-17.551-10.1-19.694c0,0,.955,17,9.341,24Z" transform="translate(-132.294 -190.539)" fill="#6c63ff"/>
      <path id="Path_617" data-name="Path 617" d="M187.861,278.3s-.08-18.283-4.784-20.969c0,0-2.916,16.553,3.422,23.3Z" transform="translate(-149.715 -168.803)" fill="#6c63ff"/>
      <path id="Path_618" data-name="Path 618" d="M198.65,243.688s-.659-18.825-5.53-21.478c0,0-1.665,14.9,4.8,22.711Z" transform="translate(-156.57 -148.217)" fill="#6c63ff"/>
      <path id="Path_619" data-name="Path 619" d="M215.571,206.914s-.028-15.312-3.505-18.9c0,0-3.456,16.772,1.69,21.983Z" transform="translate(-168.3 -128.17)" fill="#6c63ff"/>
      <path id="Path_620" data-name="Path 620" d="M220.666,162.484,217.283,137s-4.6,20.882,3.544,30.085Z" transform="translate(-171.597 -98.269)" fill="#6c63ff"/>
      <path id="Path_621" data-name="Path 621" d="M215.39,110.406s-8.683-17.133-8.505-19.036c0,0,.923,17.956,11.847,26.9Z" transform="translate(-165.662 -71.522)" fill="#6c63ff"/>
      <path id="Path_622" data-name="Path 622" d="M211.962,87.883s-8.2-24.333-11.9-26.3c0,0,11.707,7.068,12.585,25.608Z" transform="translate(-161.217 -54.06)" fill="#6c63ff"/>
      <path id="Path_623" data-name="Path 623" d="M220.121,170.237l-.561-.2c6.916-26.787,8.641-43.866,4.861-48.149l.4-.5C228.832,125.9,227.2,142.792,220.121,170.237Z" transform="translate(-173.923 -89.113)" fill="#444053"/>
      <path id="Path_624" data-name="Path 624" d="M164.959,299.387l-.829-.352c.735-2.454,1.526-4.945,2.355-7.4,7.219-21.37,13.366-41.25,17.306-56.512l.721-.414c-3.948,15.291-9.986,35.933-17.212,57.332C166.475,294.45,165.687,296.929,164.959,299.387Z" transform="translate(-137.806 -155.544)" fill="#444053"/>
      <path id="Path_625" data-name="Path 625" d="M166.586,535.145c-.112-.145-11.32-15.138-19.136-40.733a175.912,175.912,0,0,1-7.55-46.672c-.537-19.918,2.983-42.157,9.01-62.36l.655.91c-13.533,45.343-8.157,84.2-1.024,107.6,7.732,25.364,18.815,40.191,18.923,40.34Z" transform="translate(-121.983 -243.863)" fill="#444053"/>
      <path id="Path_626" data-name="Path 626" d="M581.8,670.36s-7.9,11.451-1.627,28.761L517.11,731.607l-6.052,1.506-2.787-14.484,1.864-18.279v-9.99Z" transform="translate(-362.038 -410.91)" fill="#d5d6db"/>
      <path id="Path_627" data-name="Path 627" d="M59.16,582.29l87.288-18.9,115.661,21.883L190.27,615.992Z" transform="translate(-38.547 -330.238)" fill="#6c63ff"/>
      <path id="Path_628" data-name="Path 628" d="M59.16,582.29l87.288-18.9,115.661,21.883L190.27,615.992Z" transform="translate(-38.547 -330.238)" fill="#6c63ff"/>
      <path id="Path_629" data-name="Path 629" d="M141.6,652.47s-8.164,18.37,1.244,35.337L272.28,721.12s-8.035-14.633.415-34.944Z" transform="translate(-120.982 -400.423)" fill="#6c63ff"/>
      <path id="Path_630" data-name="Path 630" d="M141.6,652.47s-8.164,18.37,1.244,35.337L272.28,721.12s-8.035-14.633.415-34.944Z" transform="translate(-120.982 -400.423)" opacity="0.1"/>
      <path id="Path_631" data-name="Path 631" d="M154.932,667.86s-4.665,13.441,0,22.14" transform="translate(-130.462 -409.444)" opacity="0.1"/>
      <path id="Path_632" data-name="Path 632" d="M280.751,766.484l72.264-36.624s4.042,1.035,1.429,4.552S282.145,770,282.145,770L151.31,733.171Z" transform="translate(-129.453 -445.787)" fill="#6c63ff"/>
      <path id="Path_633" data-name="Path 633" d="M280.751,766.484l72.264-36.624s4.042,1.035,1.429,4.552S282.145,770,282.145,770L151.31,733.171Z" transform="translate(-129.453 -445.787)" opacity="0.1"/>
      <path id="Path_634" data-name="Path 634" d="M500.018,742.86s-6.969,9.932,0,24.83" transform="translate(-354.643 -453.407)" opacity="0.1"/>
      <path id="Path_734" data-name="Path 734" d="M.137,2.936l33.57-1.857-.02.407L.117,3.343Z" transform="translate(146.797 298.928) rotate(-18.45)" opacity="0.1"/>
      <path id="Path_735" data-name="Path 735" d="M.191,3.97l41.1-2.5-.022.406-41.1,2.5Z" transform="translate(146.255 301.358) rotate(-20.82)" opacity="0.1"/>
      <path id="Path_736" data-name="Path 736" d="M.237,4.866,48.027,1.8l-.023.4L.214,5.27Z" transform="translate(145.991 304.516) rotate(-22.26)" opacity="0.1"/>
      <path id="Path_737" data-name="Path 737" d="M.3,6.012,55.574,2.24l-.025.4L.278,6.415Z" transform="translate(145.805 307.038) rotate(-24.31)" opacity="0.1"/>
      <path id="Path_738" data-name="Path 738" d="M.314,6.425,60.666,2.389l-.024.4L.29,6.828Z" transform="matrix(0.916, -0.401, 0.401, 0.916, 146.082, 308.316)" opacity="0.1"/>
      <path id="Path_739" data-name="Path 739" d="M.362,7.623l72.18-4.79-.024.4L.338,8.027Z" transform="translate(146.399 310.053) rotate(-23.36)" opacity="0.1"/>
      <path id="Path_635" data-name="Path 635" d="M152.23,592.252l61.323-15.312,37.358,8.483-50.25,19.243Z" transform="translate(-99.189 -338.181)" fill="#fff" opacity="0.3"/>
      <path id="Path_636" data-name="Path 636" d="M595.849,659.69s3.171,1.519,1.31,3.865S524,690.409,524,690.409Z" transform="translate(-372.287 -404.655)" fill="#6c63ff"/>
      <path id="Path_637" data-name="Path 637" d="M681.1,574.18s-7.9,11.446-1.624,28.761L616.41,635.427l-6.052,1.515-2.787-14.484,1.892-18.275v-10Z" transform="translate(-426.739 -354.532)" fill="#d5d6db"/>
      <path id="Path_638" data-name="Path 638" d="M158.46,486.105l87.285-18.9,115.664,21.883L289.57,519.812Z" transform="translate(-103.248 -273.861)" fill="#3a3768"/>
      <path id="Path_639" data-name="Path 639" d="M240.85,556.29s-8.167,18.37,1.24,35.337L371.532,624.94s-8.031-14.645.429-34.948Z" transform="translate(-185.652 -344.045)" fill="#3a3768"/>
      <path id="Path_640" data-name="Path 640" d="M240.85,556.29s-8.167,18.37,1.24,35.337L371.532,624.94s-8.031-14.645.429-34.948l-40.933-10.524Z" transform="translate(-185.652 -344.045)" opacity="0.1"/>
      <path id="Path_641" data-name="Path 641" d="M254.225,571.68s-4.662,13.437,0,22.14" transform="translate(-195.16 -353.066)" opacity="0.1"/>
      <path id="Path_642" data-name="Path 642" d="M380.041,670.3l72.268-36.624s4.038,1.035,1.425,4.552-72.3,35.589-72.3,35.589L250.6,636.991Z" transform="translate(-194.148 -389.409)" fill="#3a3768"/>
      <path id="Path_643" data-name="Path 643" d="M380.041,670.3l72.268-36.624s4.038,1.035,1.425,4.552-72.3,35.589-72.3,35.589L250.6,636.991Z" transform="translate(-194.148 -389.409)" opacity="0.1"/>
      <path id="Path_644" data-name="Path 644" d="M599.308,646.68s-6.969,9.932,0,24.83" transform="translate(-419.338 -397.029)" opacity="0.1"/>
      <path id="Path_740" data-name="Path 740" d="M.137,2.936l33.57-1.857-.02.407L.117,3.343Z" transform="translate(181.395 259.13) rotate(-18.45)" opacity="0.1"/>
      <path id="Path_741" data-name="Path 741" d="M.191,3.97l41.1-2.5-.022.406-41.1,2.5Z" transform="translate(180.857 261.559) rotate(-20.82)" opacity="0.1"/>
      <path id="Path_742" data-name="Path 742" d="M.237,4.866,48.027,1.8l-.023.4L.214,5.27Z" transform="translate(180.588 264.71) rotate(-22.26)" opacity="0.1"/>
      <path id="Path_743" data-name="Path 743" d="M.3,6.012,55.574,2.24l-.025.4L.278,6.415Z" transform="translate(180.407 267.233) rotate(-24.31)" opacity="0.1"/>
      <path id="Path_744" data-name="Path 744" d="M.314,6.425,60.666,2.389l-.024.4L.29,6.828Z" transform="matrix(0.916, -0.401, 0.401, 0.916, 180.679, 268.506)" opacity="0.1"/>
      <path id="Path_745" data-name="Path 745" d="M.362,7.623l72.18-4.79-.024.4L.338,8.027Z" transform="translate(180.998 270.243) rotate(-23.36)" opacity="0.1"/>
      <path id="Path_645" data-name="Path 645" d="M251.53,496.072l61.323-15.312,37.359,8.483-50.25,19.243Z" transform="translate(-163.89 -281.803)" fill="#fff" opacity="0.45"/>
      <path id="Path_646" data-name="Path 646" d="M695.169,563.51s3.167,1.519,1.31,3.861-73.149,26.853-73.149,26.853Z" transform="translate(-437.008 -348.277)" fill="#3a3768"/>
      <path id="Path_647" data-name="Path 647" d="M690.518,464.15s-7.9,20.555-1.627,37.865L625.826,525.4l-6.038,1.519L617,512.431l1.864-18.279v-10Z" transform="translate(-432.883 -290.035)" fill="#d5d6db"/>
      <path id="Path_648" data-name="Path 648" d="M167.89,376.08l87.288-18.9,115.664,21.883L299,409.782Z" transform="translate(-109.392 -209.364)" fill="#6c63ff"/>
      <path id="Path_649" data-name="Path 649" d="M250.307,446.26s-8.178,18.37,1.23,35.337L380.978,514.91s-8.035-14.645.425-34.944Z" transform="translate(-191.809 -279.549)" fill="#6c63ff"/>
      <path id="Path_650" data-name="Path 650" d="M250.307,446.26s-8.178,18.37,1.23,35.337L380.978,514.91s-8.035-14.645.425-34.944Z" transform="translate(-191.809 -279.549)" opacity="0.1"/>
      <path id="Path_651" data-name="Path 651" d="M263.662,461.65s-4.665,13.441,0,22.14" transform="translate(-201.308 -288.57)" opacity="0.1"/>
      <path id="Path_652" data-name="Path 652" d="M389.481,564.963l72.264-27.52s4.042,1.035,1.429,4.552-72.3,26.485-72.3,26.485L260.04,531.65Z" transform="translate(-200.298 -329.602)" fill="#6c63ff"/>
      <path id="Path_653" data-name="Path 653" d="M389.481,564.963l72.264-27.52s4.042,1.035,1.429,4.552-72.3,26.485-72.3,26.485L260.04,531.65Z" transform="translate(-200.298 -329.602)" opacity="0.1"/>
      <path id="Path_654" data-name="Path 654" d="M608.748,536.65s-6.969,9.932,0,24.83" transform="translate(-425.489 -332.533)" opacity="0.1"/>
      <path id="Path_746" data-name="Path 746" d="M.137,2.936l33.57-1.857-.02.407L.117,3.343Z" transform="translate(184.685 213.596) rotate(-18.45)" opacity="0.1"/>
      <path id="Path_747" data-name="Path 747" d="M.191,3.97l41.1-2.5-.022.406-41.1,2.5Z" transform="translate(184.145 216.027) rotate(-20.82)" opacity="0.1"/>
      <path id="Path_748" data-name="Path 748" d="M.237,4.866,48.027,1.8l-.023.4L.214,5.27Z" transform="translate(183.873 219.18) rotate(-22.26)" opacity="0.1"/>
      <path id="Path_749" data-name="Path 749" d="M.3,6.012,55.574,2.24l-.025.4L.278,6.415Z" transform="translate(183.696 221.7) rotate(-24.31)" opacity="0.1"/>
      <path id="Path_750" data-name="Path 750" d="M.314,6.425,60.666,2.389l-.024.4L.29,6.828Z" transform="matrix(0.916, -0.401, 0.401, 0.916, 183.97, 222.976)" opacity="0.1"/>
      <path id="Path_751" data-name="Path 751" d="M.362,7.623l72.18-4.79-.024.4L.338,8.027Z" transform="translate(184.288 224.716) rotate(-23.36)" opacity="0.1"/>
      <path id="Path_655" data-name="Path 655" d="M260.96,386.042l61.323-15.312,37.358,8.483-50.25,19.243Z" transform="translate(-170.034 -217.307)" fill="#fff" opacity="0.3"/>
      <path id="Path_656" data-name="Path 656" d="M704.6,453.48s3.171,1.519,1.31,3.865S632.76,484.2,632.76,484.2Z" transform="translate(-443.152 -283.781)" fill="#6c63ff"/>
      <path id="Path_657" data-name="Path 657" d="M376.9,149.891s-13.24-.948-11.693,10.085a2.928,2.928,0,0,0,1.178,2.835s.024-.828,1.359-.542a5.016,5.016,0,0,0,1.443.083,2.775,2.775,0,0,0,1.76-.861h0s3.725-1.829,5.174-9.063a7.765,7.765,0,0,0,1.045-1.982l-2.244,1.134a5.589,5.589,0,0,1,.164,3.509s-.073-3.439-.505-3.36c-.087,0-1.16.666-1.16.666s1.314,3.34.321,5.765c0,0,.376-4.113-.732-5.525l-1.575,1.093s1.537,3.447.495,6.261c0,0,.268-4.316-.826-6l-1.429,1.324s1.446,3.4.564,5.732c0,0-.115-5.024-.871-5.4a9.747,9.747,0,0,0-1.439,1.846s.99,2.483.373,3.77c0,0-.373-3.348-.7-3.364a12.221,12.221,0,0,0-1.373,3.724,9.136,9.136,0,0,1,1.07-3.948,3.574,3.574,0,0,0-1.9,1.171,2.145,2.145,0,0,1,2.213-1.7,9.9,9.9,0,0,1,1.3-1.784,6.934,6.934,0,0,0-3.226.439s1.073-1.477,3.592-.828l1.394-1.366s-2.641-.414-3.763.046c0,0,1.293-1.308,4.143-.356l1.537-1.088a11.845,11.845,0,0,0-3.6-.368s1.415-.906,4.045.074l1.094-.584s-1.648-.385-2.132-.447-.509-.219-.509-.219a4.917,4.917,0,0,1,3.1.414A12.788,12.788,0,0,0,376.9,149.891Z" transform="translate(-268.739 -105.814)" fill="#6c63ff"/>
      <path id="Path_658" data-name="Path 658" d="M911.5,259.471s-13.24-.948-11.693,10.085a2.928,2.928,0,0,0,1.178,2.835s.024-.828,1.359-.542a5.183,5.183,0,0,0,1.443.083,2.769,2.769,0,0,0,1.742-.861h0s3.728-1.829,5.174-9.063a7.762,7.762,0,0,0,1.045-1.982l-2.237,1.134a5.589,5.589,0,0,1,.164,3.509s-.073-3.439-.5-3.36c-.087,0-1.164.666-1.164.666s1.314,3.34.324,5.765c0,0,.376-4.113-.735-5.525l-1.575,1.092s1.537,3.447.495,6.261c0,0,.268-4.316-.826-6l-1.425,1.324s1.443,3.4.561,5.732c0,0-.115-5.024-.871-5.4a9.893,9.893,0,0,0-1.439,1.846s.99,2.483.376,3.77c0,0-.376-3.348-.7-3.364a12.221,12.221,0,0,0-1.373,3.724,9.1,9.1,0,0,1,1.073-3.948,3.588,3.588,0,0,0-1.906,1.171,2.149,2.149,0,0,1,2.213-1.7,10.061,10.061,0,0,1,1.3-1.788,6.962,6.962,0,0,0-3.226.443s1.073-1.477,3.592-.828l1.394-1.366s-2.645-.414-3.763.046c0,0,1.289-1.308,4.143-.356l1.533-1.088a11.846,11.846,0,0,0-3.6-.368s1.415-.906,4.045.074l1.1-.583s-1.651-.385-2.136-.447-.509-.219-.509-.219a4.881,4.881,0,0,1,3.1.414A12.992,12.992,0,0,0,911.5,259.471Z" transform="translate(-617.069 -170.047)" fill="#6c63ff" opacity="0.1"/>
      <path id="Path_659" data-name="Path 659" d="M435.649,301.667s-5.77-14.207-13.115-7.2a2.635,2.635,0,0,0-1.509,2.6s.61-.377,1.045,1.146a7.961,7.961,0,0,0,.641,1.531,3.159,3.159,0,0,0,1.495,1.407h0s3.16,2.971,9.185.944c0,0,1.683.343,1.958.1l-1.923-1.767a4.112,4.112,0,0,1-2.5,1.879s2.495-1.75,2.226-2.156c-.056-.083-1.045-.881-1.045-.881s-1.815,2.992-4.08,3.145c0,0,3.206-1.614,3.7-3.455l-1.568-1.1s-1.787,3.278-4.362,3.567c0,0,3.3-1.825,4-3.778l-1.665-.828s-1.794,3.153-3.941,3.381c0,0,3.638-2.57,3.547-3.542a7.712,7.712,0,0,0-2.059-.592s-1.331,2.231-2.585,2.231c0,0,2.275-2.024,2.136-2.351a7.8,7.8,0,0,0-3.415.414,5.888,5.888,0,0,1,3.425-.828,3.774,3.774,0,0,0-1.791-1.4s1.247-.563,2.331,1.461a7.425,7.425,0,0,1,1.948.48,9.932,9.932,0,0,0-1.9-3.124s1.61.385,2.345,3.311l1.69.795A14.714,14.714,0,0,0,428,293.176s1.589.7,2.282,4.138l1.547,1.059a18.089,18.089,0,0,0-1.481-3.907s1.355,1.026,1.916,4.229l.965.852s-.523-1.9-.7-2.429-.087-.637-.087-.637a7.506,7.506,0,0,1,1.213,3.414S435.523,301.791,435.649,301.667Z" transform="translate(-305.19 -189.432)" fill="#6c63ff" opacity="0.1"/>
      <path id="Path_660" data-name="Path 660" d="M819.429,198.047s-5.766-14.207-13.115-7.2a2.641,2.641,0,0,0-1.509,2.6s.613-.372,1.045,1.146a7.789,7.789,0,0,0,.645,1.535,3.14,3.14,0,0,0,1.491,1.4h0s3.164,2.971,9.185.948c0,0,1.683.339,1.962.1l-1.913-1.771a4.114,4.114,0,0,1-2.5,1.883s2.491-1.755,2.223-2.16c-.056-.083-1.045-.881-1.045-.881s-1.812,2.992-4.08,3.145c0,0,3.209-1.614,3.7-3.451l-1.592-1.093s-1.784,3.273-4.362,3.567c0,0,3.3-1.829,4.007-3.782l-1.669-.828s-1.794,3.158-3.937,3.381c0,0,3.634-2.57,3.543-3.538a7.529,7.529,0,0,0-2.056-.592s-1.331,2.226-2.589,2.226c0,0,2.279-2.024,2.139-2.351a7.82,7.82,0,0,0-3.418.414,5.885,5.885,0,0,1,3.425-.828,3.755,3.755,0,0,0-1.787-1.4s1.247-.563,2.331,1.461a7.454,7.454,0,0,1,1.948.484,9.9,9.9,0,0,0-1.9-3.129s1.61.389,2.345,3.331l1.693.795a14.72,14.72,0,0,0-1.868-3.882s1.589.7,2.279,4.138l1.55,1.059a18.249,18.249,0,0,0-1.484-3.907s1.359,1.026,1.916,4.229l.965.852s-.519-1.9-.7-2.429-.087-.633-.087-.633a7.526,7.526,0,0,1,1.209,3.414S819.321,198.18,819.429,198.047Z" transform="translate(-555.25 -128.693)" fill="#6c63ff" opacity="0.1"/>
      <path id="Path_661" data-name="Path 661" d="M872.3,367.852s-5.766-14.211-13.125-7.209a2.641,2.641,0,0,0-1.509,2.6s.613-.372,1.045,1.146a7.786,7.786,0,0,0,.641,1.535,3.14,3.14,0,0,0,1.491,1.4h0s3.164,2.975,9.188.948c0,0,1.679.343,1.958.1l-1.923-1.767a4.113,4.113,0,0,1-2.5,1.883s2.491-1.755,2.223-2.16c-.056-.083-1.045-.881-1.045-.881s-1.812,2.992-4.08,3.149c0,0,3.209-1.618,3.7-3.455l-1.571-1.1s-1.784,3.278-4.362,3.567c0,0,3.3-1.829,4.007-3.782L864.77,363s-1.794,3.153-3.937,3.381c0,0,3.638-2.57,3.547-3.542a7.561,7.561,0,0,0-2.059-.592s-1.331,2.226-2.589,2.226c0,0,2.279-2.024,2.139-2.351a7.819,7.819,0,0,0-3.418.414,5.9,5.9,0,0,1,3.429-.828,3.746,3.746,0,0,0-1.791-1.4s1.247-.567,2.331,1.461a7.425,7.425,0,0,1,1.948.48,9.982,9.982,0,0,0-1.9-3.129s1.61.389,2.345,3.331l1.69.795a14.652,14.652,0,0,0-1.868-3.878s1.589.7,2.279,4.138l1.55,1.055a18.25,18.25,0,0,0-1.484-3.907s1.359,1.026,1.92,4.233l.965.828s-.523-1.9-.7-2.429-.087-.633-.087-.633a7.48,7.48,0,0,1,1.209,3.414S872.191,367.976,872.3,367.852Z" transform="translate(-589.692 -228.226)" fill="#6c63ff" opacity="0.1"/>
      <ellipse id="Ellipse_101" data-name="Ellipse 101" cx="8.01" cy="1.064" rx="8.01" ry="1.064" transform="translate(62.355 322.385)" fill="#6c63ff" opacity="0.1"/>
      <ellipse id="Ellipse_102" data-name="Ellipse 102" cx="8.01" cy="1.064" rx="8.01" ry="1.064" transform="translate(9.843 304.309)" fill="#6c63ff" opacity="0.1"/>
      <ellipse id="Ellipse_103" data-name="Ellipse 103" cx="8.01" cy="1.064" rx="8.01" ry="1.064" transform="translate(102.382 334.391)" fill="#6c63ff" opacity="0.1"/>
      <ellipse id="Ellipse_104" data-name="Ellipse 104" cx="8.01" cy="1.064" rx="8.01" ry="1.064" transform="translate(307.502 308.241)" fill="#6c63ff" opacity="0.1"/>
      <ellipse id="Ellipse_105" data-name="Ellipse 105" cx="8.01" cy="1.064" rx="8.01" ry="1.064" transform="translate(240.844 303.08)" fill="#6c63ff" opacity="0.1"/>
      <ellipse id="Ellipse_106" data-name="Ellipse 106" cx="9.474" cy="1.933" rx="9.474" ry="1.933" transform="translate(196.259 326.511)" fill="#6c63ff" opacity="0.1"/>
      <path id="Path_662" data-name="Path 662" d="M675.59,790.14s-13.192,8.094-6.376,17.629c0,0,.641,2.069,2.495,1.924,0,0-.369-.8,1.045-1.444a6.512,6.512,0,0,0,1.425-.9,3.987,3.987,0,0,0,1.275-2.024h0s2.7-4.287.606-12.22a9.318,9.318,0,0,0,.035-2.607l-1.6,2.611a5.363,5.363,0,0,1,1.847,3.261s-1.742-3.257-2.091-2.9c-.077.074-.794,1.428-.794,1.428s2.871,2.313,3.084,5.318c0,0-1.617-4.209-3.362-4.809l-1,2.119s3.136,2.268,3.484,5.678c0,0-1.822-4.324-3.683-5.2l-.735,2.239s3.024,2.284,3.3,5.123c0,0-2.53-4.747-3.439-4.6a13.339,13.339,0,0,0-.495,2.752s2.136,1.7,2.174,3.364c0,0-1.972-2.959-2.275-2.764a14.7,14.7,0,0,0,.481,4.523,10.259,10.259,0,0,1-.875-4.523,5.175,5.175,0,0,0-1.265,2.417,2.949,2.949,0,0,1,1.3-3.141,13.412,13.412,0,0,1,.394-2.6,9.462,9.462,0,0,0-2.885,2.615,4.532,4.532,0,0,1,3.063-3.215l.7-2.268s-2.746,1.382-3.592,2.6c0,0,.61-2.131,3.808-3.153l.948-2.069a14.989,14.989,0,0,0-3.631,2.069,6.208,6.208,0,0,1,3.923-2.677l.77-1.3s-1.77.749-2.265,1.018-.592.137-.592.137a6,6,0,0,1,3.174-1.713A18.751,18.751,0,0,0,675.59,790.14Z" transform="translate(-465.631 -481.121)" fill="#6c63ff"/>
      <path id="Path_663" data-name="Path 663" d="M582.545,199.558c-2.279-7.354-14.822-8.045-20.265-6.17-3.868,1.337-12.021,2.843-16.376,3.6l-.282-.319c.565-.2.578-.687.509-1.411a26.212,26.212,0,0,1,.035-2.864c2.669.985,5.045-1.345,5.045-1.345h0c3.136-1.655,2.293-8.74,2.892-10.677.449-1.448.934-9.982,1.15-14.236h.045l.024-1.428c.031-.617.045-.977.045-.977s.307-10.4.906-12.51c.557-1.937,1.01-11.695,1.08-13.243v-.2l-.045-.9c.031-.658.045-1.39.042-2.16,0-3.538-.31-8-.348-8.715v-.377c.024-1.51-.136-9.075-5.554-11.935-2-1.059-4.4-2.322-6.721-3.551-.6-6.145-1.969-12.258-1.85-18.448,0-.931.07-1.862.146-2.789,0,.269-.024.542-.028.828v1.8c.206-7.743,2.669-15.527,2.439-23.1-.021.741-.066,1.486-.125,2.231a28.385,28.385,0,0,0-.669-7.61,4.791,4.791,0,0,0-1.094-2.359,4.127,4.127,0,0,0-1.909-.9,33.014,33.014,0,0,0-5.014-1.109,9.925,9.925,0,0,0-1.129-2.6c-3.533-5.76-8.766-11.173-14.955-12.415-3.1-.621-6.676-.1-8.787,2.533a7.355,7.355,0,0,0-.62.745c-1.136,1.61-1.624,3.724-2.787,5.33-.077.108-.164.207-.247.31-2.279,2.421-5.829,2.926-8.362,5.1a10.793,10.793,0,0,0-1.251,1.3,24.8,24.8,0,0,0-2.732,3.944,17.639,17.639,0,0,0-2.672,6.158c-.728,4.552,1.882,8.868,2.366,13.449,1.08,10.251-8.47,19.346-6.662,29.46a14.337,14.337,0,0,0,3.073,6.551c-3.725,4.006-6.9,7.892-6.9,7.892v.232h-.589l.059.828h-.059l.324,4.49-.324,6.538v.617h.021c.108,2.4.537,11.012,1.045,12.829.6,2.106.9,12.51.9,12.51s.662,14.7,1.268,16.648-.254,9.009,2.892,10.677h0a6.109,6.109,0,0,0,3.16,1.556c-.16,1.548-.059,2.669.46,3.021a1.345,1.345,0,0,0,.732.248,9.8,9.8,0,0,0-.568,1.179,12.848,12.848,0,0,1-3.652-1.022c-3.38-1.655-14.6-5.38-17.853-2.76s-11.1,4.995-7.477,15.539,5.307,10.809,5.307,10.809a14.375,14.375,0,0,1,2.9,3.455c1.087,1.941,11.216,6.381,13.749,6.381a20.926,20.926,0,0,1,3.223.19s-2.749,2.864-2.383,4.527-.836,14.981-.836,14.981,2.787,3.335,3.979-1.039l.042.066c.223.36,1.429,1.986,3.7-.066a20.617,20.617,0,0,1,2.948-2.218L508.9,244.8a26.182,26.182,0,0,1,3.439-.029c1.742.17,3.453-1.055,4.53-2,2.275,1.026,4.833,2.148,6.049,2.557,2.467.828,13.8,4.44,16.456,3.311a3.769,3.769,0,0,0,1.429-1.208l2.53.1-1.185.281s2.307.046,5.442.1l-.132.091,3.934-.041c5.756.062,12.223.083,13.073-.145,1.331-.352,8.247-.1,10.286,0h.568s7.6-1.8,4.463-10.958c-2.411-7.035-9.822-9.079-13.111-9.642.927-.219,1.725-.389,2.254-.488,2.3-.414,6.756-2.9,7.118-3.745s4.1-3.311,5.066-4.714S584.834,206.912,582.545,199.558ZM519.6,220.138l-.373.145-.251.1-.481.563c-.383-.306-.794-.629-1.223-.96C518.03,220.038,518.807,220.092,519.6,220.138ZM552.81,231.8Z" transform="translate(-333.433 -43.42)" fill="url(#linear-gradient)"/>
      <path id="Path_664" data-name="Path 664" d="M686.65,292.708s5.331,16.553,8.362,14.9,2.209-8.69,2.787-10.619,1.22-16.553,1.22-16.553.293-10.346.871-12.44c.537-1.924.972-11.629,1.045-13.156v-.2l-.575-12-3.254-.964-7.547,3.311-1.045,7.089-.408,2.769-.174,1.179Z" transform="translate(-478.265 -159.624)" fill="#be6f72"/>
      <path id="Path_665" data-name="Path 665" d="M691.69,358.3s5.087,4.945,6.62,5.38,2.474,4.291,2.474,4.291" transform="translate(-481.549 -227.989)" opacity="0.1"/>
      <path id="Path_666" data-name="Path 666" d="M540.286,294.458s-5.331,16.553-8.362,14.9-2.209-8.69-2.787-10.619-1.219-16.553-1.219-16.553-.293-10.346-.871-12.44c-.537-1.924-.972-11.629-1.045-13.156v-.2l.578-12,3.254-.964,7.547,3.311,1.045,7.089.408,2.769.174,1.179Z" transform="translate(-373.59 -160.65)" fill="#be6f72"/>
      <rect id="Rectangle_92" data-name="Rectangle 92" width="11.899" height="22.028" transform="translate(189.51 45.224)" fill="#3e373a"/>
      <rect id="Rectangle_93" data-name="Rectangle 93" width="11.899" height="22.028" transform="translate(189.51 45.224)" opacity="0.1"/>
      <path id="Path_667" data-name="Path 667" d="M555.59,404.725s-4.066,5.309-2.557,6.274S564.3,430.034,564.3,430.034s32.055,4.689,38.1-2.346,5.923-19.6,5.923-19.6-4.857,1.241-5.387.567-3.439-3.927-3.439-3.927S558.377,401.762,555.59,404.725Z" transform="translate(-390.985 -254.43)" fill="#4b4b5b"/>
      <path id="Path_668" data-name="Path 668" d="M555.59,404.725s-4.066,5.309-2.557,6.274S564.3,430.034,564.3,430.034s32.055,4.689,38.1-2.346,5.923-19.6,5.923-19.6-4.857,1.241-5.387.567-3.439-3.927-3.439-3.927S558.377,401.762,555.59,404.725Z" transform="translate(-390.985 -254.43)" opacity="0.02"/>
      <path id="Path_669" data-name="Path 669" d="M596.983,190.47,586.531,200.4l-3.16.273-1.16.1-19.488,1.7-20.209-1.755-3.007-.261-3.833-.331-8.014-9.1A151.618,151.618,0,0,1,538.3,178.932a21.924,21.924,0,0,1,5.157-4.093l.23-.1a5.839,5.839,0,0,0,2.209-1.829c3.923-4.8,7.551-16.661,7.551-16.661s17.306-10.619,15.216,3.311,7.78,10.486,7.78,10.486l3.254,1.763,1.286.7,3.279,1.784,7.4,4.031C597.464,181.5,596.983,190.47,596.983,190.47Z" transform="translate(-374.672 -107.286)" fill="#be6f72"/>
      <ellipse id="Ellipse_107" data-name="Ellipse 107" cx="15.564" cy="18.486" rx="15.564" ry="18.486" transform="translate(171.674 23.34)" opacity="0.1"/>
      <path id="Path_670" data-name="Path 670" d="M595.926,235.278H526v-.2l.578-12a151.623,151.623,0,0,1,10.641-12.088l43.9-2.069,2.042-2.557,7.4,4.031c5.808,3.17,5.341,12.138,5.341,12.138S596.7,232.92,595.926,235.278Z" transform="translate(-373.59 -138.926)" opacity="0.1"/>
      <path id="Path_671" data-name="Path 671" d="M595.926,234.278H526v-.2l.578-12a151.621,151.621,0,0,1,10.641-12.088l43.9-2.069,2.042-2.557,7.4,4.031c5.808,3.17,5.341,12.138,5.341,12.138S596.7,231.92,595.926,234.278Z" transform="translate(-373.59 -138.34)" fill="#e7c7ca"/>
      <path id="Path_672" data-name="Path 672" d="M585.645,188.8s11.031,16.694,25.724-.343,1.627,38,1.627,38l-31.707,4.469Z" transform="translate(-409.616 -126.513)" opacity="0.1"/>
      <path id="Path_673" data-name="Path 673" d="M585.645,190.8s11.031,16.694,25.724-.343,1.627,38,1.627,38l-31.707,4.469Z" transform="translate(-409.616 -127.685)" fill="#e7c7ca"/>
      <path id="Path_674" data-name="Path 674" d="M596.524,202.033l1.167,21.143,1.251,7.035.955,5.38s2.439,41.383,1.742,43.452.348,3.724.495,4.825-.146,3.865-.031,5.107,0,1.792-2.669,1.349-6.39-1.213-6.39-1.213-9.408.828-12.658-.55-9.408-1.382-9.408-1.382-9.293.277-12.31-.137-4.648,4.416-6.62,3.033,2.32-14.757,3.714-18.622S553.9,257.8,553.9,257.8l4.181-27.549.93-6.245V204.371l.23-.1a5.839,5.839,0,0,0,2.209-1.829L562.5,222.2l32.752,1.382V201.35" transform="translate(-390.23 -135.99)" opacity="0.1"/>
      <path id="Path_675" data-name="Path 675" d="M596.524,200.033l1.167,21.143,1.251,7.035.955,5.38s2.439,41.383,1.742,43.452.348,3.724.495,4.825-.146,3.865-.031,5.107,0,1.792-2.669,1.349-6.39-1.212-6.39-1.212-9.408.828-12.658-.55-9.408-1.382-9.408-1.382-9.293.277-12.31-.137-4.648,4.416-6.62,3.033,2.32-14.757,3.714-18.622S553.9,255.8,553.9,255.8l4.181-27.549.93-6.245V202.371l.23-.1a5.839,5.839,0,0,0,2.209-1.829L562.5,220.2l32.752,1.382V199.35" transform="translate(-390.23 -134.817)" fill="#e7c7ca"/>
      <path id="Path_676" data-name="Path 676" d="M591.177,66.759a4.882,4.882,0,0,0-1.045-2.342,3.938,3.938,0,0,0-1.84-.894,31.289,31.289,0,0,0-4.836-1.1,10.022,10.022,0,0,0-1.045-2.578C579,54.117,573.944,48.716,568,47.5c-3.111-.641-6.718-.066-8.711,2.847-1.094,1.6-1.564,3.724-2.669,5.3-2.129,3.054-5.972,3.431-8.655,5.794a18.513,18.513,0,0,0-3.484,4.788,17.793,17.793,0,0,0-2.575,6.121c-.7,4.515,1.815,8.819,2.279,13.375,1.045,10.193-8.153,19.235-6.415,29.291,1.014,5.864,5.575,9.994,10.293,12.088,1.662.741,3.561,1.477,4.338,3.373.348.828.408,1.784.735,2.62,1.1,2.789,4.721,2.9,6.665.865s2.557-5.318,2.787-8.384c.934-13.392-3.582-26.622-3.056-40.046.157-4.06,1.118-8.666,4.181-10.5,4.122-2.483,9.08,1.655,13.617.865a37.74,37.74,0,0,1,1.3,19.578c-.721,3.571-1.969,7.035-2.059,10.718-.136,5.607,2.411,10.731,4.613,15.688a9.383,9.383,0,0,1,.93,3.025,8.5,8.5,0,0,1-.5,3.166c-1.244,3.977-3.39,7.668-3.634,11.9a2.217,2.217,0,0,0,.261,1.415,1.4,1.4,0,0,0,.9.48c3.763.766,7.017-3.195,8.854-7.172A38.457,38.457,0,0,0,591.49,120.4c.38-8.426-2.164-16.715-2.007-25.148C589.665,85.663,593.313,76.008,591.177,66.759Z" transform="translate(-381.116 -45.666)" opacity="0.1"/>
      <path id="Path_677" data-name="Path 677" d="M592.177,65.759a4.882,4.882,0,0,0-1.045-2.342,3.938,3.938,0,0,0-1.84-.894,31.287,31.287,0,0,0-4.836-1.1,10.022,10.022,0,0,0-1.045-2.578C580,53.117,574.944,47.716,569,46.5c-3.111-.641-6.718-.066-8.711,2.847-1.094,1.6-1.564,3.724-2.669,5.3-2.129,3.054-5.972,3.431-8.655,5.794a18.514,18.514,0,0,0-3.484,4.788,17.794,17.794,0,0,0-2.575,6.121c-.7,4.515,1.815,8.819,2.279,13.375,1.045,10.193-8.153,19.235-6.415,29.291,1.014,5.864,5.575,9.994,10.293,12.088,1.662.741,3.561,1.477,4.338,3.373.348.828.408,1.784.735,2.62,1.1,2.789,4.721,2.9,6.665.865s2.557-5.318,2.787-8.384c.934-13.392-3.582-26.622-3.056-40.046.157-4.06,1.118-8.666,4.181-10.5,4.122-2.483,9.08,1.655,13.617.865a37.74,37.74,0,0,1,1.3,19.578c-.721,3.571-1.969,7.035-2.059,10.718-.136,5.607,2.411,10.731,4.613,15.688a9.388,9.388,0,0,1,.93,3.025,8.5,8.5,0,0,1-.5,3.166c-1.244,3.977-3.39,7.668-3.634,11.9a2.217,2.217,0,0,0,.261,1.415,1.4,1.4,0,0,0,.9.48c3.763.766,7.017-3.195,8.854-7.172A38.457,38.457,0,0,0,592.49,119.4c.38-8.426-2.164-16.715-2.007-25.148C590.665,84.663,594.313,75.008,592.177,65.759Z" transform="translate(-381.768 -45.08)" fill="#3e373a"/>
      <path id="Path_678" data-name="Path 678" d="M581.79,476.229l13.822.526L593.63,464.58l-10.589,1.2Z" transform="translate(-379.078 -272.319)" fill="#c3c7d9"/>
      <path id="Path_679" data-name="Path 679" d="M673.186,430.086c-.93,1.378-4.53,3.861-4.878,4.689s-4.645,3.311-6.854,3.724-9.174,2.21-10.453,3.174c-.916.7-8.272,2.9-13.1,4.118a31.929,31.929,0,0,1-3.969.848c-2.091.137-24.968-9.1-24.968-9.1l4.411-5.38.244-.1c1.247-.5,7.01-2.814,10.209-3.915,3.6-1.241,7.784-6.344,7.784-6.344s6.153-2.483,6.969-2.76-2.091-9.655-2.091-9.655,13.355-2.2,18.582-4.068,17.306-1.175,19.512,6.137S674.13,428.708,673.186,430.086Z" transform="translate(-427.645 -255.032)" fill="#4b4b5b"/>
      <path id="Path_680" data-name="Path 680" d="M563.458,502.041s-2.669,3.311-5.341,3.038-12.017.828-12.017.828a18.291,18.291,0,0,0-4.707,3.24c-2.185,2.044-3.345.414-3.561.066l-.038-.066c-1.164,4.349-3.833,1.035-3.833,1.035s1.16-13.242.8-14.9,2.3-4.5,2.3-4.5l3.136-.948,7.944-2.417,11.383,4.689Z" transform="translate(-378.777 -303.676)" fill="#e7c7ca"/>
      <path id="Path_681" data-name="Path 681" d="M540.183,493.26l-2.352,19.375-.038-.066c-1.164,4.349-3.833,1.035-3.833,1.035s1.16-13.243.8-14.9,2.3-4.5,2.3-4.5Z" transform="translate(-378.777 -307.099)" opacity="0.1"/>
      <path id="Path_682" data-name="Path 682" d="M599,360.08s6.153,2.483,11.5,0" transform="translate(-421.155 -229.033)" opacity="0.1"/>
      <path id="Path_683" data-name="Path 683" d="M659.29,371.42s2.554,1.515,4.53,0" transform="translate(-460.438 -235.68)" opacity="0.1"/>
      <path id="Path_684" data-name="Path 684" d="M659.29,379.115s4.3.683,5.111-.7" transform="translate(-460.438 -239.783)" opacity="0.1"/>
      <path id="Path_685" data-name="Path 685" d="M655.29,394.647s8.07-1.241,10.073-2.9" transform="translate(-457.832 -247.597)" opacity="0.1"/>
      <path id="Path_686" data-name="Path 686" d="M584.62,391.75s4.53,3.033,7.9,2.9" transform="translate(-411.785 -247.597)" opacity="0.1"/>
      <path id="Path_687" data-name="Path 687" d="M637.887,484.915a31.934,31.934,0,0,1-3.969.848c-2.091.137-24.968-9.1-24.968-9.1l4.411-5.38.244-.1c.7.583,1.268,1.084,1.676,1.465,1.92,1.8,3.773-.55,4.47-.55s6.735,5.93,6.735,5.93,5.575,1.519,6.505,2.9,4.181,1.1,4.76,2.069A4.341,4.341,0,0,1,637.887,484.915Z" transform="translate(-427.638 -294.156)" opacity="0.1"/>
      <path id="Path_688" data-name="Path 688" d="M504.887,410.813s-5.638.385-8.888-1.242-14.052-5.38-17.188-2.744-10.686,4.966-7.2,15.452,5.111,10.76,5.111,10.76a14.14,14.14,0,0,1,2.787,3.435c1.045,1.933,10.8,6.344,13.24,6.344s6.735,0,12.773,4.966,11.5,5.521,11.5,5.521,7.665,3.724,10.052,4.552,13.293,4.411,15.85,3.311,4.181-8,4.181-8,1.16-6.207.578-7.172-3.833-.691-4.76-2.069-6.505-2.9-6.505-2.9-6.024-5.934-6.721-5.934-2.551,2.342-4.47.55a101.605,101.605,0,0,0-12.024-9.1C508.789,423.778,504.887,410.813,504.887,410.813Z" transform="translate(-337.565 -255.9)" fill="#4b4b5b"/>
      <path id="Path_689" data-name="Path 689" d="M536.27,427.193a5.93,5.93,0,0,1,5.711,1.792c2.787,2.76,12.167,8.3,12.167,8.3" transform="translate(-380.282 -268.279)" opacity="0.1"/>
      <path id="Path_690" data-name="Path 690" d="M708.709,427s-12.428,2.235-14.749,5.268" transform="translate(-483.028 -268.259)" opacity="0.1"/>
      <path id="Path_691" data-name="Path 691" d="M717.56,508.111h-.547c-1.965-.083-8.624-.331-9.906,0-1.509.414-21.488,0-21.488,0l3.906-.964s-1.449-6.034-.53-6.534c0,0-5.226-4.089-1.286-6.849a10.511,10.511,0,0,1,8.188-1.6l9.892-3.981,1.9-.766s11.15.691,14.167,9.8S717.56,508.111,717.56,508.111Z" transform="translate(-477.594 -303.676)" fill="#e7c7ca"/>
      <path id="Path_692" data-name="Path 692" d="M755.28,508.141h-.547c3.244-3.178,10.582-12.854-11.223-19.905l1.9-.766s11.15.691,14.167,9.8S755.28,508.141,755.28,508.141Z" transform="translate(-515.314 -303.705)" opacity="0.1"/>
      <ellipse id="Ellipse_108" data-name="Ellipse 108" cx="0.61" cy="0.724" rx="0.61" ry="0.724" transform="translate(218.858 192.261)" fill="#4b4b5b"/>
      <ellipse id="Ellipse_109" data-name="Ellipse 109" cx="0.61" cy="0.724" rx="0.61" ry="0.724" transform="translate(215.315 193.457)" fill="#4b4b5b"/>
      <g id="Group_16" data-name="Group 16" transform="translate(156.878 26.03)" opacity="0.1">
        <path id="Path_693" data-name="Path 693" d="M621.642,121.63a37.5,37.5,0,0,0-2-13.3c-4.53.8-9.491-3.348-13.617-.865-3.052,1.837-4.01,6.443-4.181,10.5-.042,1.072-.049,2.144-.031,3.215,0-.381,0-.766.031-1.146.16-4.06,1.118-8.666,4.181-10.5,4.125-2.483,9.08,1.655,13.617.865A37.241,37.241,0,0,1,621.642,121.63Z" transform="translate(-579.86 -106.517)"/>
        <path id="Path_694" data-name="Path 694" d="M553.441,122.049a16.369,16.369,0,0,0-.045-2.706c-.369-3.642-2.045-7.122-2.348-10.673-.39,4.283,1.906,8.4,2.348,12.742A3.059,3.059,0,0,1,553.441,122.049Z" transform="translate(-546.759 -107.693)"/>
        <path id="Path_695" data-name="Path 695" d="M563.863,213.5c-.216,3.071-.826,6.352-2.787,8.388s-5.575,1.924-6.665-.865c-.348-.828-.4-1.792-.739-2.62-.773-1.9-2.676-2.632-4.338-3.373-4.721-2.1-9.275-6.207-10.289-12.088a14.986,14.986,0,0,1-.185-1.614,15.448,15.448,0,0,0,.185,3.683c1.014,5.864,5.575,9.99,10.289,12.088,1.662.741,3.564,1.477,4.338,3.373.349.828.408,1.784.739,2.62,1.1,2.789,4.718,2.9,6.665.865s2.554-5.318,2.787-8.388q.159-2.424.108-4.858C563.971,211.651,563.926,212.578,563.863,213.5Z" transform="translate(-538.823 -162.008)"/>
        <path id="Path_696" data-name="Path 696" d="M687.93,127.49v1.792c.2-7.7,2.571-15.436,2.338-22.972C690.087,113.279,688.062,120.405,687.93,127.49Z" transform="translate(-635.977 -106.31)"/>
        <path id="Path_697" data-name="Path 697" d="M656.25,206.124a6.316,6.316,0,0,0,.08-1.494,9.307,9.307,0,0,0-.93-3.025c-2.014-4.552-4.31-9.212-4.582-14.265,0,.215-.024.414-.028.646-.139,5.6,2.408,10.731,4.61,15.688A11.047,11.047,0,0,1,656.25,206.124Z" transform="translate(-611.774 -153.807)"/>
        <path id="Path_698" data-name="Path 698" d="M668.329,217.088a38.5,38.5,0,0,1-3.516,14.285c-1.84,3.977-5.091,7.937-8.857,7.172a1.388,1.388,0,0,1-.9-.484,1.088,1.088,0,0,1-.164-.323c-.042.323-.077.65-.1.981a2.2,2.2,0,0,0,.261,1.411,1.388,1.388,0,0,0,.9.484c3.766.766,7.017-3.195,8.857-7.172a38.5,38.5,0,0,0,3.516-14.285c.042-.968.045-1.933.021-2.9C668.343,216.537,668.343,216.81,668.329,217.088Z" transform="translate(-614.372 -170.759)"/>
      </g>
      <path id="Path_699" data-name="Path 699" d="M695.31,511.75s8.819,4.395,14.634-5.33" transform="translate(-483.908 -314.813)" fill="none" stroke="#000" stroke-miterlimit="10" stroke-width="1" opacity="0.1"/>
      <path id="Path_700" data-name="Path 700" d="M700.29,534.281s7.2-5.562,16.376-.182" transform="translate(-487.153 -329.663)" fill="none" stroke="#000" stroke-miterlimit="10" stroke-width="1" opacity="0.1"/>
      <path id="Path_701" data-name="Path 701" d="M561.93,528.794s3.024-8.1,11.1-1.924" transform="translate(-397.001 -325.438)" fill="none" stroke="#000" stroke-miterlimit="10" stroke-width="1" opacity="0.1"/>
      <path id="Path_702" data-name="Path 702" d="M533.79,233.782l6.167-6.621s23.913-1.862,24.9,7.792c0,0,8.477-11.447,26.306-8.9l7.544,7.134-20.85,10.867L557.6,252.4l-14.923-7.933Z" transform="translate(-378.666 -150.254)" opacity="0.1"/>
      <path id="Path_703" data-name="Path 703" d="M533.79,234.782l6.167-6.621s23.913-1.862,24.9,7.792c0,0,8.477-11.447,26.306-8.9l7.544,7.134-20.85,10.867L557.6,253.4l-14.923-7.933Z" transform="translate(-378.666 -150.84)" fill="#d5d6db"/>
      <path id="Path_704" data-name="Path 704" d="M437.38,204.83l2.728,38.763,28.92,1.726-1.254-38.6-.024-.65Z" transform="translate(-284.984 -120.061)" opacity="0.1"/>
      <path id="Path_705" data-name="Path 705" d="M437.38,202.83l2.728,38.763,28.92,1.726-1.254-38.6-.024-.65Z" transform="translate(-284.984 -118.889)" fill="#6c63ff"/>
      <path id="Path_706" data-name="Path 706" d="M579.542,202.83l-29.832,5.314v38.937l29.153-5Z" transform="translate(-358.175 -118.889)" opacity="0.1"/>
      <path id="Path_707" data-name="Path 707" d="M579.542,200.83l-29.832,5.314v38.937l29.153-5Z" transform="translate(-358.175 -117.716)" fill="#6c63ff"/>
      <path id="Path_708" data-name="Path 708" d="M585,223.79l-16.115,2.127.352,6.522,15.752-2.044Z" transform="translate(-370.672 -131.175)" fill="#fff" opacity="0.3"/>
      <path id="Path_709" data-name="Path 709" d="M536.98,341.181l1.641,5.243s2.439,2.483,5.108,1.241,5-1.858,6.157-3.066,2.787-7.279,2.787-7.279,1.627-6.621,3.251-8.277,5.923-24.461,0-22.231-10.453,22.922-10.453,22.922a4.077,4.077,0,0,1-2.554,1.655c-1.509.141-4.53-.277-5.111,1.241S535.238,338.148,536.98,341.181Z" transform="translate(-380.289 -197.719)" fill="#be6f72"/>
      <path id="Path_710" data-name="Path 710" d="M621.929,255.411a8.913,8.913,0,0,1-8.749-2.591l1.258,38.594s2.962,3.807,7.491,2.938Z" transform="translate(-430.394 -166.16)" opacity="0.1"/>
      <path id="Path_711" data-name="Path 711" d="M621.929,253.411a8.913,8.913,0,0,1-8.749-2.591l1.258,38.594s2.962,3.807,7.491,2.938Z" transform="translate(-430.394 -164.987)" fill="#6c63ff"/>
      <path id="Path_712" data-name="Path 712" d="M621.929,253.411a8.913,8.913,0,0,1-8.749-2.591l1.258,38.594s2.962,3.807,7.491,2.938Z" transform="translate(-430.394 -164.987)" opacity="0.1"/>
      <path id="Path_713" data-name="Path 713" d="M640.29,241.122s12.136-4.407,15.3-3.787" transform="translate(-448.058 -157.048)" opacity="0.1"/>
      <path id="Path_714" data-name="Path 714" d="M575.658,238.324s-11.763-3.311-13.728-2.371" transform="translate(-397.001 -156.174)" opacity="0.1"/>
      <path id="Path_715" data-name="Path 715" d="M662.25,244.632s8.115-3.534,11.049-1.854" transform="translate(-462.367 -160.008)" opacity="0.1"/>
      <path id="Path_716" data-name="Path 716" d="M650.52,451.86a26.428,26.428,0,0,1,4-2.951,64.548,64.548,0,0,0,5.923-4.3" transform="translate(-454.724 -278.582)" opacity="0.1"/>
      <path id="Path_717" data-name="Path 717" d="M544.924,360.08s-5.091,4.945-6.62,5.38-2.474,4.291-2.474,4.291" transform="translate(-379.995 -229.033)" opacity="0.1"/>
      <path id="Path_718" data-name="Path 718" d="M674.249,339.419l-1.624,5.256s-2.439,2.483-5.111,1.242-4.993-1.858-6.157-3.066-2.787-7.279-2.787-7.279-1.624-6.621-3.251-8.277-5.923-24.461,0-22.231,10.453,22.922,10.453,22.922a4.077,4.077,0,0,0,2.554,1.655c1.509.141,4.53-.277,5.111,1.241S675.991,336.4,674.249,339.419Z" transform="translate(-455.875 -196.693)" fill="#be6f72"/>
      <path id="Path_719" data-name="Path 719" d="M707.15,364.94s3.327,2.541,3.314,5.578" transform="translate(-491.623 -231.881)" opacity="0.1"/>
      <ellipse id="Ellipse_110" data-name="Ellipse 110" cx="15.564" cy="18.486" rx="15.564" ry="18.486" transform="translate(171.73 22.434)" fill="#be6f72"/>
      <path id="Path_720" data-name="Path 720" d="M583.658,102.694c1.888-.352,3.544-1.655,5.348-2.4,4.038-1.684,8.505-.53,12.592.989a14.162,14.162,0,0,0,4.8,1.241,4.658,4.658,0,0,0,4.23-2.483,6.558,6.558,0,0,0-.028-5.185,14.419,14.419,0,0,0-2.843-4.167c-3.624-4.064-8.118-7.863-13.09-7.449a15.917,15.917,0,0,0-5.753,1.957,60.19,60.19,0,0,0-6.753,4.039c-1.676,1.155-4.78,2.7-5.746,4.809C574.226,98.8,580.243,103.332,583.658,102.694Z" transform="translate(-406.137 -66.736)" fill="#3e373a"/>
      <path id="Path_721" data-name="Path 721" d="M610.631,115.038a4.658,4.658,0,0,1-4.23,2.483,14.158,14.158,0,0,1-4.808-1.217c-4.087-1.519-8.55-2.677-12.592-.989-1.8.749-3.46,2.069-5.348,2.4-2.753.513-7.185-2.334-7.665-5.955-.54,4.184,4.6,7.768,7.665,7.2,1.888-.352,3.547-1.655,5.348-2.4,4.042-1.688,8.505-.53,12.592.989a13.587,13.587,0,0,0,4.808,1.217,4.693,4.693,0,0,0,4.23-2.483,5.627,5.627,0,0,0,.488-3.025,5.067,5.067,0,0,1-.488,1.784Z" transform="translate(-406.134 -83.475)" opacity="0.1"/>
      <path id="Path_722" data-name="Path 722" d="M1027.367,661.63s2.066,3.207-.955,8.053-5.509,8.935-4.505,11.956c0,0,4.557-9,8.265-9.125S1031.44,667.039,1027.367,661.63Z" transform="translate(-696.562 -405.792)" fill="#6c63ff"/>
      <path id="Path_723" data-name="Path 723" d="M1027.588,661.63a4.3,4.3,0,0,1,.422,1.006c3.617,5.049,5.547,9.762,2.066,9.878-3.24.112-7.125,6.994-8.056,8.728q.045.21.108.414s4.557-9,8.265-9.125S1031.661,667.039,1027.588,661.63Z" transform="translate(-696.783 -405.792)" opacity="0.1"/>
      <path id="Path_724" data-name="Path 724" d="M1048.107,670.487a1.036,1.036,0,1,1-.477,0c0-1.13.132-.6.265-.6S1048.107,669.358,1048.107,670.487Z" transform="translate(-713.47 -410.561)" fill="#ffd037"/>
      <path id="Path_725" data-name="Path 725" d="M1049.746,673.642c-.833.538-1.561.865-1.624.728s.561-.687,1.394-1.242.505-.149.568,0S1050.582,673.1,1049.746,673.642Z" transform="translate(-713.787 -412.367)" fill="#ffd037"/>
      <path id="Path_726" data-name="Path 726" d="M997.994,661.63s-2.066,3.207.955,8.053,5.509,8.935,4.5,11.956c0,0-4.554-9-8.265-9.125S993.931,667.039,997.994,661.63Z" transform="translate(-678.109 -405.792)" fill="#6c63ff"/>
      <path id="Path_727" data-name="Path 727" d="M997.994,661.63a4.309,4.309,0,0,0-.422,1.006c-3.617,5.049-5.547,9.762-2.066,9.878,3.237.112,7.125,6.994,8.056,8.728a3.669,3.669,0,0,1-.112.414s-4.554-9-8.265-9.125S993.931,667.039,997.994,661.63Z" transform="translate(-678.109 -405.792)" opacity="0.1"/>
      <path id="Path_728" data-name="Path 728" d="M995.64,670.487a1.036,1.036,0,1,0,.477,0c0-1.13-.136-.6-.265-.6S995.64,669.358,995.64,670.487Z" transform="translate(-679.594 -410.561)" fill="#ffd037"/>
      <path id="Path_729" data-name="Path 729" d="M990.912,673.642c.833.538,1.561.865,1.624.728s-.561-.687-1.394-1.242-.505-.149-.568,0S990.076,673.1,990.912,673.642Z" transform="translate(-676.183 -412.367)" fill="#ffd037"/>
      <ellipse id="Ellipse_111" data-name="Ellipse 111" cx="21.603" cy="3.936" rx="21.603" ry="3.936" transform="translate(303.743 292.524)" fill="#6c63ff" opacity="0.1"/>
      <path id="Path_730" data-name="Path 730" d="M1012.642,697.408l-.1,1-.146,1.415-.059.592-.146,1.415-.063.592-.143,1.411-1.655,16.1c-.146,1.436-2.122,2.557-4.509,2.557h-8.589c-2.387,0-4.359-1.121-4.509-2.557l-1.655-16.1-.146-1.411-.059-.592-.146-1.415-.063-.592-.143-1.415-.1-1c-.08-.828.986-1.5,2.338-1.5h17.568C1011.656,695.91,1012.726,696.593,1012.642,697.408Z" transform="translate(-676.179 -425.886)" fill="#65617d"/>
      <path id="Path_731" data-name="Path 731" d="M924.161,658.53l-.143,1.415H902.276l-.146-1.415Z" transform="translate(-587.802 -386.007)" fill="#9d9cb5"/>
      <path id="Path_732" data-name="Path 732" d="M924.34,663.38,924.2,664.8H902.866l-.146-1.415Z" transform="translate(-588.187 -388.85)" fill="#9d9cb5"/>
      <path id="Path_733" data-name="Path 733" d="M924.525,668.23l-.146,1.415H903.463l-.143-1.415Z" transform="translate(-588.577 -391.693)" fill="#9d9cb5"/>
    </g>
    <g id="undraw_exams_g4ow" transform="translate(121.077 646.516)">
      <path id="Path_752" data-name="Path 752" d="M392.143,252.905v.8q-.047,6.929-.553,13.823a.76.76,0,0,1,0,.083c-.027.382-.056.76-.086,1.142-.05.645-.1,1.287-.163,1.932a198.5,198.5,0,0,1-3.41,23.18h0a159.884,159.884,0,0,1-8.9,29.1q-1.751,4.171-3.729,8.075h0q-1.056,2.068-2.165,4.053-.781,1.392-1.591,2.74l-.337.553a116.385,116.385,0,0,1-9.167,12.936,159.817,159.817,0,0,1-16.877,17.537c-.331.3-.665.6-1,.878a.5.5,0,0,1-.074.066,167.465,167.465,0,0,1-24.574,18.648c-9.256,5.634-18.814,9.73-28.62,11.522-13.668,2.494-27.5.465-41.087-3.021A197.837,197.837,0,0,1,216.394,385.1l-1.8-.839q-1.4-.663-2.8-1.352-8.449-4.149-16.708-9.221a211.711,211.711,0,0,1-39.428-31.435q-2.366-2.362-4.663-4.83-3.211-3.434-6.346-7.069l-1.289-1.484a172.42,172.42,0,0,1-15.324-20.9,131.581,131.581,0,0,1-15.377-35.128q-.846-3.122-1.55-6.362l-.044-.215c-.237-1.1-.455-2.2-.656-3.337q-.444-2.45-.778-4.962c-.047-.321-.089-.641-.127-.966a122.526,122.526,0,0,1-.932-17.094,115.9,115.9,0,0,1,1.183-14.929h0a91.578,91.578,0,0,1,3.351-14.74h0a60.433,60.433,0,0,1,5.125-11.737h0a39.7,39.7,0,0,1,4.829-6.7,37.239,37.239,0,0,1,10.454-7.974h0c1.733-.922,3.489-1.73,5.255-2.481,1.251-.536,2.508-1.045,3.759-1.546l3.691-1.48c2.366-.957,4.731-1.941,7.062-3a69.146,69.146,0,0,0,18.335-11.566c.911-.821,1.839-1.721,2.768-2.687q1.774-1.831,3.5-3.978h0c1.165-1.449,2.307-3,3.395-4.641.169-.255.334-.509.5-.768.887-1.388,1.748-2.841,2.546-4.351.39-.738.769-1.489,1.13-2.253.5-1.058.973-2.134,1.411-3.241h0a45.884,45.884,0,0,0,3.389-18.069q-.035-1.59-.192-3.166c-.384-3.877-.754-7.662-1.026-11.364-1.141-15.311-.659-29.2,7.08-42.241,9.623-16.216,24.725-19.522,38.473-18.227,39.748,3.732,75.932,37.428,107.73,77.544q4.125,5.2,8.15,10.538,1.014,1.344,2.032,2.7c5.027,6.723,9.978,13.7,14.588,21.164.373.606.745,1.212,1.112,1.822.225.378.452.751.674,1.133q2.156,3.623,4.184,7.421a158.929,158.929,0,0,1,9.558,21.516A166.567,166.567,0,0,1,391,230.665h0q.772,7.236,1.014,14.565c.05,1.436.083,2.876.1,4.312v1.379C392.146,251.588,392.146,252.238,392.143,252.905Z" transform="translate(-108.55 -48.49)" fill="#6c63ff" opacity="0.1"/>
      <path id="Path_753" data-name="Path 753" d="M382.442,446.426,377.98,566.495l4.462.089,3.625-121.843Z" transform="translate(-266.169 -243.179)" fill="#3f3d56"/>
      <rect id="Rectangle_94" data-name="Rectangle 94" width="55.217" height="18.129" transform="translate(38.201 260.995)" fill="#6c63ff"/>
      <path id="Path_754" data-name="Path 754" d="M293.563,679.51v11.383H236.525q-3.029-3.3-5.985-6.788v-4.6Z" transform="translate(-196.519 -402.036)" fill="#3f3d56"/>
      <path id="Path_755" data-name="Path 755" d="M264.483,551.321c-.156,1.092-.36,2.171-.575,3.246a60.773,60.773,0,0,0-1.542,9.4c-.2,4.267.558,9.229-1.394,12.328-.5.8-1.157,1.4-1.606,2.256a4.456,4.456,0,0,0-.19.422,9.454,9.454,0,0,0-.455,3.373c0,2.446.11,4.889.315,7.315.661,8.348,1.966,16.712.251,24.592q-.466,2.05-1.085,4.009a42.8,42.8,0,0,0-2.022,8.542c-.2,2.234-.139,4.536-.151,6.809q-1.322-.637-2.641-1.3-7.967-3.984-15.756-8.854c.014-.114.028-.232.039-.346a39.954,39.954,0,0,0-.812-11.248c-1.394-7.753-3.369-15.431-4.537-23.239a87.173,87.173,0,0,1-.923-9.275c-.033-.7-.053-1.4-.056-2.108-.014-.919,0-1.838.025-2.766.059-1.851.112-4.047-.867-5.173-.538-.611-1.249-.717-1.877-1.088-1.21-.713-2.039-2.365-3-3.689a3.147,3.147,0,0,0-3.511-1.56c-6.269,2.171-10.876,10.211-16.71,14.276-.226.16-.452.312-.68.455a9.353,9.353,0,0,0-2.139,1.653,4.021,4.021,0,0,0-.959,2.045,11.5,11.5,0,0,0,.053,2.749,21.109,21.109,0,0,1-.126,4.482c-.076.571-.175,1.134-.3,1.686-.223,1-.521,1.977-.806,2.951q-2.231-2.268-4.4-4.638-3.029-3.3-5.985-6.788l-1.2-1.455a165.433,165.433,0,0,1-14.451-20.064c.594-2.53,1.453-4.882,1.866-7.475.234-1.488.321-3.036.644-4.482a19.6,19.6,0,0,1,1.539-4.174,51.959,51.959,0,0,1,8.573-12.969c3.455-3.744,7.446-6.746,10.555-11a25.468,25.468,0,0,0,3.227-5.78c.053-.131.1-.27.148-.422a12.207,12.207,0,0,0,.5-2.412c.223-1.889.19-3.963.3-5.776a27.175,27.175,0,0,0,11.47.523c4.448-.755,8.8-2.622,13.247-3.347.335-.059.672-.105,1.01-.148a30.958,30.958,0,0,1,4.284-.186c1.2,0,2.393.08,3.589.139l13.171.675a8.984,8.984,0,0,1,4.306.965,11.693,11.693,0,0,1,3.938,4.958c.131.27.262.54.385.818a32.321,32.321,0,0,1,2.03,6.067c.053.219.1.422.151.662.126.586.234,1.176.332,1.775.075.468.142.936.2,1.408.307,2.336.488,4.722.973,6.978.033.164.07.329.109.489.583,2.471,1.551,4.684,2.281,7.058a36.2,36.2,0,0,1,1.2,5.367A39.838,39.838,0,0,1,264.483,551.321Z" transform="translate(-156.049 -297.131)" fill="#35323e"/>
      <path id="Path_756" data-name="Path 756" d="M261.078,259.235c-1.177-1.417-2.884-.379-4.261.535a22.285,22.285,0,0,1-3.558,1.944,1.036,1.036,0,0,1-.781.122c-.558-.2-.792-1.2-1.208-1.809-.722-1.05-1.9-.8-2.836-.232s-1.852,1.391-2.85,1.265c-1.065-.126-1.991-1.315-3.068-1.353-1.9-.068-3.489,3.466-5.282,2.53-1.093-.569-1.952-2.719-3.029-2.108-.837.481-.912,2.23-1.417,3.373-.594,1.332-1.751,1.707-2.741,2.3-3.121,1.863-5.187,7.121-4.78,12.155a58.281,58.281,0,0,0,1.7,7.977c1.746,7.711,1.146,16.409,3.346,23.846.279-.4.435-.544.706-.936a14.391,14.391,0,0,0-.376,7c.231,1.168.608,2.256.892,3.4.3,1.281.534,2.591.714,3.921l2.426,16.181a155.2,155.2,0,0,1,2.064,19.124,83.813,83.813,0,0,1-.636,12.564c4.4-1.1,8.416-4.047,12.87-4.009a24.25,24.25,0,0,1,4.875.759,67.076,67.076,0,0,0,14.259,1.463,3.928,3.928,0,0,0,2.186-.464,17.286,17.286,0,0,0,1.7-1.611,5.5,5.5,0,0,1,3.818-1.265c5.965-.164,11.713,3.137,17.639,4.3a47.465,47.465,0,0,0,.683-24.082,50.172,50.172,0,0,1-1.461-6.978c-.085-1.49-.107-2.987-.067-4.482a47.624,47.624,0,0,0-1.347-11.206,16.457,16.457,0,0,1-.725-4.33,13.369,13.369,0,0,1,1-4.216,43.837,43.837,0,0,1,3.327-7.7,30.942,30.942,0,0,1,4.914-5.9l4.3-4.368a91.5,91.5,0,0,0-2.923-16.708c-1.576-5.169-3.932-9.92-7.12-12.943a21.89,21.89,0,0,0-3.363-2.53,11.829,11.829,0,0,0-5.089-2.108c-2.008-.173-3.985.641-5.968,1.147C273.377,265.386,266.031,265.192,261.078,259.235Z" transform="translate(-192.68 -164.467)" fill="#6c63ff"/>
      <path id="Path_757" data-name="Path 757" d="M226.335,488.919l-2.047,3.908-3.86,7.365-4.462,8.512-1.247,2.378H212.3l-59.872.105-37.495.063h-1.673c-.223-1.054-.429-2.108-.619-3.2q-.418-2.353-.733-4.764c-.045-.308-.084-.616-.12-.928l13.6-13.445,5.115-.042h0l15.645-.135h0l8.737-.076h2.6l5.823-.046h0l44.38-.384h0l2.27-.021h.984l2.607-.021,9.7-.084,1.863-1.071.137.219Z" transform="translate(-110.885 -293.866)" fill="#3f3d56"/>
      <path id="Path_758" data-name="Path 758" d="M223.163,461.656l-.231.422-1.523,2.711-3.135,5.595L211.7,482.1l-58.229-2.247-43.909-1.686c-.045-.308-.084-.616-.12-.928a119.757,119.757,0,0,1-.878-16.413l4.869-3.769,1.116-.869,8.681-6.746,7.619-5.9,19.873,3.9,4.4.864,1.991.388,2.914.573.245.051,45.7,8.959,5.05.991,2.964.582,9.136,1.8Z" transform="translate(-108.55 -269.175)" fill="#504f60"/>
      <path id="Path_759" data-name="Path 759" d="M465.375,534.51l-.047,1.657-.279,9.355-1.5,51.436-.318,11.118-.837,28.6-.471,16.156-1.7-.805q-1.322-.637-2.641-1.3l4.08-112.146.086-2.353,1.8-.843Z" transform="translate(-354.339 -315.545)" fill="#3f3d56"/>
      <path id="Path_760" data-name="Path 760" d="M117.242,534.22l-.126,4.33-.184,6.324q-.8-3-1.461-6.109l-.042-.207c-.223-1.054-.429-2.108-.619-3.2Z" transform="translate(-113.063 -320.65)" fill="#3f3d56"/>
      <ellipse id="Ellipse_112" data-name="Ellipse 112" cx="12.828" cy="26.139" rx="12.828" ry="26.139" transform="translate(68.455 93.127)" fill="#a1616a"/>
      <ellipse id="Ellipse_113" data-name="Ellipse 113" cx="12.828" cy="26.139" rx="12.828" ry="26.139" transform="translate(68.455 93.127)" opacity="0.1"/>
      <ellipse id="Ellipse_114" data-name="Ellipse 114" cx="17.848" cy="26.983" rx="17.848" ry="26.983" transform="translate(65.207 75.678)" fill="#a1616a"/>
      <path id="Path_761" data-name="Path 761" d="M341.784,184.056a15.8,15.8,0,0,0-3.238.746c-2.822,1.037-5.262,3.339-7.638,5.6a11.364,11.364,0,0,0-2.822,3.567c-1.188,2.677-.728,6.084-1.394,9.056a32.288,32.288,0,0,1-1.52,4.317,69.887,69.887,0,0,0-3.017,12.412c-.156.877-.2,2.066.432,2.4a1.216,1.216,0,0,0,1.082-.186c2-1,4.54-1.286,6.024.742s1.358,5.624,3.123,7.167c2.022,1.783,5.179-.371,7.014,1.733.786.9,1.071,2.348,1.715,3.436,1.5,2.53,4.387,2.407,6.788,1.9,1.378-.3,3.068-.493,3.9.97a23.705,23.705,0,0,0,.982,2.264c.837,1.13,2.368.557,3.185-.6a35.815,35.815,0,0,0,1.888-4.031c1.325-2.53,3.653-3.908,5.02-6.408a20.793,20.793,0,0,0,1.8-7.294l1.163-9.44c.471-3.828.9-8.01-.524-11.383-.508-1.214-1.235-2.26-1.673-3.516-.293-.843-.457-1.733-.8-2.53a9.713,9.713,0,0,0-1.431-2.184l-2.753-3.444a26.893,26.893,0,0,0-3.009-3.373C352.158,182.513,346.274,183.424,341.784,184.056Z" transform="translate(-258.321 -123.699)" fill="#464353"/>
      <path id="Path_762" data-name="Path 762" d="M131.948,342.814c-.661,1.062-1.272,2.209-1.98,3.2a29.2,29.2,0,0,1-1.952,2.361q-1.64,1.855-3.207,3.841a24.978,24.978,0,0,0-2.939,4.439c-1.489,3.023-2.195,6.784-3.589,9.908-1.233,2.77-2.97,4.958-4.222,7.707a15.225,15.225,0,0,0-1.2,3.824,26.617,26.617,0,0,0-.248,4.043,45.191,45.191,0,0,0,.254,6.657,12.2,12.2,0,0,0,2.094,5.751,8.064,8.064,0,0,0,3.74,2.445,2.3,2.3,0,0,0,2.08.089,4.3,4.3,0,0,0,1.21-1.543l3.394-5.9c2.27-3.963,4.629-8.01,7.744-10.329.976-.721,2.005-1.265,2.984-1.965,4.15-3.023,7.083-9.212,8.221-15.958.279-1.648.457-3.331.639-5.013l.491-4.612a2.207,2.207,0,0,0,0-.7,1.529,1.529,0,0,0-.357-.641,79.567,79.567,0,0,1-6.62-9.444,22.984,22.984,0,0,0-1.5-2.6c-.7-.843-.65-.78-1.495,0A22.3,22.3,0,0,0,131.948,342.814Z" transform="translate(-111.464 -209.654)" fill="#a1616a"/>
      <path id="Path_763" data-name="Path 763" d="M262.091,421.887a.6.6,0,0,0-.436-.473.493.493,0,0,0-.483.354,1.149,1.149,0,0,0-.024.81l-.279.207,8.316,25.768,1.5-1.109-8.316-25.785Z" transform="translate(-218.391 -257.083)" fill="#3f3d56"/>
      <path id="Path_764" data-name="Path 764" d="M131.948,342.814c-.661,1.062-1.272,2.209-1.98,3.2a29.2,29.2,0,0,1-1.952,2.361q-1.64,1.855-3.207,3.841a24.978,24.978,0,0,0-2.939,4.439c-1.489,3.023-2.195,6.784-3.589,9.908-1.233,2.77-2.97,4.958-4.222,7.707a15.225,15.225,0,0,0-1.2,3.824,26.617,26.617,0,0,0-.248,4.043,45.191,45.191,0,0,0,.254,6.657,12.2,12.2,0,0,0,2.094,5.751,8.064,8.064,0,0,0,3.74,2.445,2.3,2.3,0,0,0,2.08.089,4.3,4.3,0,0,0,1.21-1.543l3.394-5.9c2.27-3.963,4.629-8.01,7.744-10.329.976-.721,2.005-1.265,2.984-1.965,4.15-3.023,7.083-9.212,8.221-15.958.279-1.648.457-3.331.639-5.013l.491-4.612a2.207,2.207,0,0,0,0-.7,1.529,1.529,0,0,0-.357-.641,79.567,79.567,0,0,1-6.62-9.444,22.984,22.984,0,0,0-1.5-2.6c-.7-.843-.65-.78-1.495,0A22.3,22.3,0,0,0,131.948,342.814Z" transform="translate(-111.464 -209.654)" opacity="0.04"/>
      <path id="Path_765" data-name="Path 765" d="M473.185,409.713a28.966,28.966,0,0,1-.837,7.913,3.927,3.927,0,0,1-1.551,2.458,2.42,2.42,0,0,1-1.364.076,33.267,33.267,0,0,0-16.311,1.956c1.422-4.3.605-9.457,1-14.229.109-1.3.307-2.584.382-3.891.279-4.638-1.035-9.14-1.637-13.719a46.146,46.146,0,0,1,0-12.007,10.913,10.913,0,0,1,.683-2.888,5.728,5.728,0,0,1,1.567-2.062c2.259-1.944,4.922-2.167,7.46-1.91,1.71.173,5.137-.072,6.562,1.518,1.559,1.741,2.052,7.589,2.474,10.291.63,4.145,1.059,8.354,1.283,12.593C473.168,400.434,473.227,405.076,473.185,409.713Z" transform="translate(-350.447 -228.56)" fill="#a1616a"/>
      <path id="Path_766" data-name="Path 766" d="M59.98,436.03l10.04,10.118,45.178-2.53-29.84-7.589Z" transform="translate(-43.252 -244.324)" fill="#fff"/>
      <path id="Path_767" data-name="Path 767" d="M185.987,288.092c-1.648,2.2-3.045,4.785-4.607,7.125a78.248,78.248,0,0,1-7,8.664c1.768.747,3.145,2.845,3.625,5.523.106.62.159,1.265.279,1.872a11.937,11.937,0,0,0,1.551,3.794c2.828,4.819,6.785,8.386,8.453,14.335a1.449,1.449,0,0,0,.335.717.511.511,0,0,0,.432.076c1.509-.24,2.663-2.078,3.625-3.866a48.77,48.77,0,0,0,4.741-12.614,33.492,33.492,0,0,0,.07-14.335,45.949,45.949,0,0,0-2.195-6.463q-1.085-2.728-2.164-5.447c-.376-.957-.856-2.9-1.6-3.373C189.941,283.063,187.01,286.545,185.987,288.092Z" transform="translate(-156.021 -179.874)" fill="#6c63ff"/>
      <path id="Path_768" data-name="Path 768" d="M462.267,346.753l2.373,8.432c-5.241-2.769-11.044-1.552-15.589,3.267a13.2,13.2,0,0,0-3.2,5.637,1.424,1.424,0,0,1-1.615-.957,6.658,6.658,0,0,1-.6-2.58,29.286,29.286,0,0,1,1.394-9.44,16.748,16.748,0,0,1,1.422-4.014,9.452,9.452,0,0,1,2.426-2.627,47.6,47.6,0,0,1,8.8-5.877c1.283-.628,2.627-.616,3.346,1.2C461.857,341.955,461.614,344.451,462.267,346.753Z" transform="translate(-344.197 -210.569)" fill="#6c63ff"/>
      <path id="Path_769" data-name="Path 769" d="M133.987,414.515c.594.717,1.116,1.564,1.726,2.247a12.206,12.206,0,0,0,2.053,1.741l2.75,2a13.113,13.113,0,0,0,2.663,1.636c1.177.476,2.412.523,3.595.965,1.492.557,2.856,1.716,4.325,2.386s3.19.78,4.417-.616c.767-.873,1.347-2.315,2.3-2.53a2.353,2.353,0,0,1,1.751.759l7.156,5.687a6.716,6.716,0,0,1,2.49,3.082c.5,1.463.165,3.685-.9,4.064a6.533,6.533,0,0,1-1.116.1,1.039,1.039,0,0,0-.82.957,2.717,2.717,0,0,0,.176.991,6.1,6.1,0,0,1,.042,3.525c-.374,1.079-1.291,1.75-2.025,1.265a3.287,3.287,0,0,1-2.094,3.208c-2.638,1.092-5.435.422-8.132-.27a8.4,8.4,0,0,1-3.1-1.265c-.463-.341-.892-.78-1.361-1.1-1.286-.864-2.747-.75-4.152-.713-6.5.173-12.945-1.648-19.337-3.461a7.422,7.422,0,0,1-3.416-1.686c-1.952-1.923-2.677-5.869-2.356-9.36a37.243,37.243,0,0,1,2.644-9.722l1.492-3.976a5.46,5.46,0,0,1,.8-1.6C127.755,410.294,132.108,412.229,133.987,414.515Z" transform="translate(-117.201 -251.435)" fill="#a1616a"/>
      <path id="Path_770" data-name="Path 770" d="M133.987,414.515c.594.717,1.116,1.564,1.726,2.247a12.206,12.206,0,0,0,2.053,1.741l2.75,2a13.113,13.113,0,0,0,2.663,1.636c1.177.476,2.412.523,3.595.965,1.492.557,2.856,1.716,4.325,2.386s3.19.78,4.417-.616c.767-.873,1.347-2.315,2.3-2.53a2.353,2.353,0,0,1,1.751.759l7.156,5.687a6.716,6.716,0,0,1,2.49,3.082c.5,1.463.165,3.685-.9,4.064a6.533,6.533,0,0,1-1.116.1,1.039,1.039,0,0,0-.82.957,2.717,2.717,0,0,0,.176.991,6.1,6.1,0,0,1,.042,3.525c-.374,1.079-1.291,1.75-2.025,1.265a3.287,3.287,0,0,1-2.094,3.208c-2.638,1.092-5.435.422-8.132-.27a8.4,8.4,0,0,1-3.1-1.265c-.463-.341-.892-.78-1.361-1.1-1.286-.864-2.747-.75-4.152-.713-6.5.173-12.945-1.648-19.337-3.461a7.422,7.422,0,0,1-3.416-1.686c-1.952-1.923-2.677-5.869-2.356-9.36a37.243,37.243,0,0,1,2.644-9.722l1.492-3.976a5.46,5.46,0,0,1,.8-1.6C127.755,410.294,132.108,412.229,133.987,414.515Z" transform="translate(-117.201 -251.435)" opacity="0.04"/>
      <path id="Path_771" data-name="Path 771" d="M328.21,433.758c-1.453,1.037-3.121,1.138-4.638,1.935a26.526,26.526,0,0,0-4.2,3.4c-3.625,3.061-7.809,4.216-11.916,5.316a23.556,23.556,0,0,1-7.53,1.189c-3.4-.219-6.66-1.931-9.95-3.221s-6.8-2.159-10.062-.708c-3.453,1.589-6.2,5.571-7.39,10.721a36.8,36.8,0,0,0-.647,9.494c.686.763,1.645-.3,2.019-1.455s.577-2.58,1.3-3.255c1.258.645,1.565,3.179,2.6,4.431a3.766,3.766,0,0,0,2.334,1.168l4.239.911c1.021.219,2.206.367,2.945-.721.36-.527.558-1.265.887-1.83a2.6,2.6,0,0,1,2.805-1.172c3.135.472,6.074,3.546,9.186,2.816a13.642,13.642,0,0,0,3.087-1.484c6.049-3.229,12.77-1.265,19.064-3.116a33.046,33.046,0,0,0,7-3.267,13.158,13.158,0,0,0,3.556-2.665,14.38,14.38,0,0,0,2.889-10.038,13.864,13.864,0,0,0-2.68-7.437,12.046,12.046,0,0,0-1.723-2.239C330.265,431.785,329.164,433.08,328.21,433.758Z" transform="translate(-222.793 -263.073)" fill="#a1616a"/>
      <g id="Group_17" data-name="Group 17" transform="translate(64.279 67.155)" opacity="0.1">
        <path id="Path_772" data-name="Path 772" d="M357.723,245.741a23.7,23.7,0,0,1-.982-2.264c-.837-1.463-2.527-1.265-3.9-.97-2.4.51-5.3.628-6.788-1.9-.644-1.088-.929-2.53-1.715-3.436-1.835-2.108-4.992.051-7.014-1.733-1.765-1.556-1.651-5.165-3.123-7.167s-4.024-1.741-6.024-.742a1.217,1.217,0,0,1-1.082.185c-.633-.337-.588-1.526-.432-2.4a69.884,69.884,0,0,1,3.017-12.412,32.288,32.288,0,0,0,1.52-4.317c.605-2.673.3-5.7,1.09-8.225a9.733,9.733,0,0,0-2.2,2.951c-1.188,2.677-.728,6.084-1.394,9.056a32.29,32.29,0,0,1-1.52,4.317,69.883,69.883,0,0,0-3.017,12.412c-.156.877-.2,2.066.432,2.4a1.217,1.217,0,0,0,1.082-.186c2-1,4.54-1.286,6.024.742s1.358,5.624,3.123,7.167c2.022,1.783,5.179-.371,7.014,1.733.786.9,1.071,2.348,1.715,3.436,1.5,2.53,4.387,2.407,6.788,1.9,1.378-.3,3.068-.493,3.9.97a23.7,23.7,0,0,0,.982,2.264c.837,1.13,2.368.557,3.185-.6a13.91,13.91,0,0,0,1.333-2.757A1.532,1.532,0,0,1,357.723,245.741Z" transform="translate(-324.055 -200.36)"/>
        <path id="Path_773" data-name="Path 773" d="M461.709,291.748q-.269.525-.5,1.092a18.62,18.62,0,0,0,3.006-3.706,9.975,9.975,0,0,0,.558-1.214A18.187,18.187,0,0,0,461.709,291.748Z" transform="translate(-422.961 -251.004)"/>
      </g>
      <path id="Path_774" data-name="Path 774" d="M556.48,446.53l.837,121,3.9-.843-.837-120.157Z" transform="translate(-391.984 -244.214)" fill="#3f3d56"/>
      <path id="Path_775" data-name="Path 775" d="M640.48,498.53l.837,121,3.9-.843-.837-120.157Z" transform="translate(-451.154 -274.291)" fill="#3f3d56"/>
      <path id="Path_776" data-name="Path 776" d="M999.339,608.132h0l-.017-2.323v-1.383l-.148-21.282-.232-33.273L998.9,547H995l.02,2.766.123,17.821.053,7.715h0l.045,6.248.073,10.8.045,6.37h0v.675l.058,8.373.05,7.382.318-.531q.767-1.294,1.5-2.631Z" transform="translate(-731.637 -325.897)" fill="#3f3d56"/>
      <path id="Path_777" data-name="Path 777" d="M619.211,545.03l-2.231,5.042,2.231,22.973,18.964,7.846h30.676l18.406,1.682,8.768-9.073-1.517-15.583-6.693-12.888Z" transform="translate(-428.766 -304.509)" fill="#6c63ff"/>
      <path id="Path_778" data-name="Path 778" d="M722.045,605.48l-1.115,14.006s-5.856,27.459,41.274,25.777,39.043-7.285,39.043-7.285l-.279-16.249s1.643,7.69-22.31,6.649-46.293-4.406-46.293-4.406S724,626.21,722.045,605.48Z" transform="translate(-533.831 -359.596)" fill="#3f3d56"/>
      <path id="Path_779" data-name="Path 779" d="M837.146,305.152c-2.688,1.851-4.724,5.439-6.088,9.406a83.548,83.548,0,0,0-2.886,12.648c-.8,4.562-1.6,9.136-2.011,13.812-.736,8.314-.184,17.054,2.343,24.52s7.195,13.491,12.661,14.929a15.511,15.511,0,0,0,6.414.114,37.733,37.733,0,0,0,11.325-3.773c3.835-1.96,7.825-4.979,9.532-10.54a34.735,34.735,0,0,0,1.026-10.452,164.5,164.5,0,0,0-2.875-28.58,31.843,31.843,0,0,0-2.209-7.69,20.1,20.1,0,0,0-4.113-5.481C853.742,307.424,845.169,299.638,837.146,305.152Z" transform="translate(-609.666 -190.066)" fill="#fbbebe"/>
      <path id="Path_780" data-name="Path 780" d="M837.146,305.152c-2.688,1.851-4.724,5.439-6.088,9.406a83.548,83.548,0,0,0-2.886,12.648c-.8,4.562-1.6,9.136-2.011,13.812-.736,8.314-.184,17.054,2.343,24.52s7.195,13.491,12.661,14.929a15.511,15.511,0,0,0,6.414.114,37.733,37.733,0,0,0,11.325-3.773c3.835-1.96,7.825-4.979,9.532-10.54a34.735,34.735,0,0,0,1.026-10.452,164.5,164.5,0,0,0-2.875-28.58,31.843,31.843,0,0,0-2.209-7.69,20.1,20.1,0,0,0-4.113-5.481C853.742,307.424,845.169,299.638,837.146,305.152Z" transform="translate(-609.666 -190.066)" opacity="0.05"/>
      <path id="Path_781" data-name="Path 781" d="M792.012,383.776a17.594,17.594,0,0,0,2.789,4.216c2.655,2.774,6.063,3.149,9.286,3.3,2.588.118,5.555-.105,7.178-3.158a16.608,16.608,0,0,0,1.355-4.836,315.2,315.2,0,0,0,3.876-31.945l7.385.038c3.2,20.688,2.934,42.194,2.655,63.439l-.4,30.979-4.758-.763c-11.3-1.809-22.611-3.617-33.97-3.929a128.91,128.91,0,0,0-19.945.995l10.36-46.57a110.728,110.728,0,0,0,3.017-18.551c.455-9.229-1.258-18.972,1.115-27.51a3.575,3.575,0,0,1,.862-1.758,1.686,1.686,0,0,1,1.475-.173c.937.19,3.8,0,4.482.906,1,1.315.34,1.514-.014,3.634a65.439,65.439,0,0,0-1.224,11.261C787.542,370.534,789.014,378.114,792.012,383.776Z" transform="translate(-567.552 -214.034)" fill="#6c63ff"/>
      <path id="Path_782" data-name="Path 782" d="M963.145,469.177h0q1.866-3.744,3.517-7.753c-.558-1.8-1.171-3.567-1.659-5.409a77.264,77.264,0,0,1-1.6-8.79q-.218-1.518-.432-3.036c-1.562-11.008-3.029-22.172-3.333-33.332q-.042-1.391-.053-2.783v-3.466c.033-2.53.139-5.08.332-7.618q.054-.746.123-1.492a3.2,3.2,0,0,1,.028-.325l18.964-1.046h0l1.6-.089a4.325,4.325,0,0,0,3.16-1.092c1.52-1.577,1.7-4.81,1.673-7.589a168.251,168.251,0,0,0-1.573-20.89c-.72-5.169-1.746-10.452-4.049-14.423-1.891-3.263-4.629-5.637-5.614-9.7-.365-1.509-.457-3.166-.931-4.608a14.591,14.591,0,0,0-2-3.613,55,55,0,0,1-6.386-13.373c-1.129-3.44-2.354-7.235-3.829-9.613-.072-.122-.145-.236-.22-.346-1.255-1.876-2.691-2.7-4.392-1.421a5.892,5.892,0,0,0-.87.818h0a14.317,14.317,0,0,0-1.654,2.378,63.183,63.183,0,0,0-4.5,9.7,69.792,69.792,0,0,0-2.3,7.589c-.5,2.066-.916,4.179-1.241,6.324-.24,1.589-.429,3.2-.58,4.806a176.377,176.377,0,0,0-.48,18.357c.084,5.633.248,11.278.586,16.889q.125,2.036.279,4.068.307,4.018.759,8.01c.12,1.016.243,2.032.379,3.044.034.27.07.54.106.805l.017.114q.553,3.528.856,7.129.034.451.05.9c.047,1.378.04,2.759-.022,4.136-.064,1.627-.164,3.251-.215,4.878,0,.287,0,.569-.02.843-.014.822,0,1.644,0,2.466a58.355,58.355,0,0,0,.463,5.856,51.827,51.827,0,0,0,2.412,10.3c.106.3.215.6.323.9,1.414,3.82,3.2,7.323,4.507,11.232a66.739,66.739,0,0,1,2.51,11.05q.279,1.893.53,3.794c.259,2.024.491,4.064.728,6.1.022.2.047.422.072.607.315,2.707.647,5.4,1.074,8.044.248,1.539.527,3.057.853,4.549Z" transform="translate(-695.442 -188.98)" fill="#464353"/>
      <path id="Path_783" data-name="Path 783" d="M863.5,584.964c0,.38-.017.759-.028,1.143q-.075,2.775-.338,5.527a51.622,51.622,0,0,1-1.208,7.332,31.45,31.45,0,0,1-1.439,4.473,21.8,21.8,0,0,1-1.79,3.487c-1.673,2.631-4.083,3.47-6.414,4.579a13.471,13.471,0,0,0-3.093,1.91c-.176.147-.349.308-.516.476l-2.917,2.922A11.068,11.068,0,0,0,843.3,620q-.154.343-.279.713a22.346,22.346,0,0,0-.859,3.9c-1.517,9.554-3.037,19.115-4.077,28.812-.07.641-.137,1.286-.209,1.931l-.025.2a1.357,1.357,0,0,0-.045-.139,158.24,158.24,0,0,1-23.175,17.906L812.9,651.4a39.94,39.94,0,0,1-.178-5.388c.164-2.837.929-5.527,1.135-8.356a20.667,20.667,0,0,0-1-8.04,11.636,11.636,0,0,1-.817-2.981c-.075-1.075.335-2.057,1.049-2.167a5.535,5.535,0,0,0,.438-3.478,14.18,14.18,0,0,0-.39-1.927c-.474-1.762-1.074-3.681-.667-5.481a2.968,2.968,0,0,0,.139-1.054.26.26,0,0,0,0-.068c-.095-.472-.466-.679-.658-1.079a4.123,4.123,0,0,1,.223-2.622,14.612,14.612,0,0,0,.374-2.871c.031-.544.053-1.092.092-1.632.054-.73.141-1.454.259-2.167a18.773,18.773,0,0,1,4.582-9.916c1.085-1.1,2.292-1.91,3.4-2.951a37.176,37.176,0,0,0,3.241-3.794q3.684-4.638,7.661-8.744a99.981,99.981,0,0,1,8.846-8.12q.976-.8,1.952-1.551,1.063-.843,2.139-1.6c2.3-1.657,4.905-1.037,7.446.068,1.065.46,2.117,1.008,3.132,1.505a12.874,12.874,0,0,1,2.845,1.931,15.82,15.82,0,0,1,4.883,8.677.669.669,0,0,1,0,.072A32.976,32.976,0,0,1,863.5,584.964Z" transform="translate(-599.526 -332.832)" fill="#f86d70"/>
      <path id="Path_784" data-name="Path 784" d="M863.5,584.964c0,.38-.017.759-.028,1.143q-.075,2.775-.338,5.527a51.622,51.622,0,0,1-1.208,7.332,31.45,31.45,0,0,1-1.439,4.473,21.8,21.8,0,0,1-1.79,3.487c-1.673,2.631-4.083,3.47-6.414,4.579a13.471,13.471,0,0,0-3.093,1.91c-.176.147-.349.308-.516.476l-2.917,2.922A11.068,11.068,0,0,0,843.3,620q-.154.343-.279.713a22.346,22.346,0,0,0-.859,3.9c-1.517,9.554-3.037,19.115-4.077,28.812-.07.641-.137,1.286-.209,1.931l-.025.2a1.357,1.357,0,0,0-.045-.139,158.24,158.24,0,0,1-23.175,17.906L812.9,651.4a39.94,39.94,0,0,1-.178-5.388c.164-2.837.929-5.527,1.135-8.356a20.667,20.667,0,0,0-1-8.04,11.636,11.636,0,0,1-.817-2.981c-.075-1.075.335-2.057,1.049-2.167a5.535,5.535,0,0,0,.438-3.478,14.18,14.18,0,0,0-.39-1.927c-.474-1.762-1.074-3.681-.667-5.481a2.968,2.968,0,0,0,.139-1.054.26.26,0,0,0,0-.068c-.095-.472-.466-.679-.658-1.079a4.123,4.123,0,0,1,.223-2.622,14.612,14.612,0,0,0,.374-2.871c.031-.544.053-1.092.092-1.632.054-.73.141-1.454.259-2.167a18.773,18.773,0,0,1,4.582-9.916c1.085-1.1,2.292-1.91,3.4-2.951a37.176,37.176,0,0,0,3.241-3.794q3.684-4.638,7.661-8.744a99.981,99.981,0,0,1,8.846-8.12q.976-.8,1.952-1.551,1.063-.843,2.139-1.6c2.3-1.657,4.905-1.037,7.446.068,1.065.46,2.117,1.008,3.132,1.505a12.874,12.874,0,0,1,2.845,1.931,15.82,15.82,0,0,1,4.883,8.677.669.669,0,0,1,0,.072A32.976,32.976,0,0,1,863.5,584.964Z" transform="translate(-599.526 -332.832)" opacity="0.1"/>
      <path id="Path_785" data-name="Path 785" d="M899.091,446.887a.6.6,0,0,0-.436-.473.494.494,0,0,0-.483.354,1.149,1.149,0,0,0-.024.811l-.279.207,8.316,25.768,1.5-1.109-8.316-25.785Z" transform="translate(-661.594 -271.067)" fill="#3f3d56"/>
      <ellipse id="Ellipse_115" data-name="Ellipse 115" cx="17.848" cy="26.983" rx="17.848" ry="26.983" transform="translate(230.046 91.605)" fill="#fbbebe"/>
      <path id="Path_786" data-name="Path 786" d="M918.009,212.269a53.116,53.116,0,0,0-.63-6.362c-1.049-6.817-2.965-13.529-6.264-18.424q-.3-1.8-.728-3.537c-.005-.029-.012-.057-.02-.084a47.928,47.928,0,0,0-4.211-11.286c-1.046-1.965-2.4-3.9-4.069-3.98-.469-.025-.965.1-1.394-.228a3.533,3.533,0,0,1-.778-1.206c-1.683-3.215-4.406-4.756-7.072-4l-.173.055a2.317,2.317,0,0,0-.279.1c-.084.038-.234.1-.351.156q.193.481.376.974.5,1.336.92,2.732.351,1.164.65,2.365c-2.856.493-5.182,3.558-7.307,6.476l-5,6.864a.288.288,0,0,0-.025.038l-.145.211c-.036.055-.072.11-.106.169a.345.345,0,0,0-.036.059c-.042.067-.081.139-.12.211a3.611,3.611,0,0,0-.187.422,1.892,1.892,0,0,0-.073.2.543.543,0,0,0-.019.063q-.027.086-.047.177a.092.092,0,0,0,0,.025q-.012.052-.02.105a1.869,1.869,0,0,0,.047.894l3.3.055h.388c.017.666.031,1.336.047,2a23.409,23.409,0,0,0-2.976,4.241c-2.976,5.434-4.529,12.454-4.685,19.52v2.58c0,.422.025.843.047,1.265a4.463,4.463,0,0,0,.279,1.564,1.548,1.548,0,0,0,.078.152,2.226,2.226,0,0,0,.591.658l.24.177h0c.12.089.234.173.346.27,1.051.9,1.673,2.631,2.63,3.744.056.063.112.126.167.181l.125.126.078.076.106.093a2.191,2.191,0,0,0,.215.173h0l.134.1h.022c.112.076.223.148.337.211l.159.084.047.025c.045.021.092.046.139.063q.142.063.279.114l.279.093c.109.03.22.059.332.08l.165.034.167.025a6.959,6.959,0,0,0,.8.063h0a13.424,13.424,0,0,0,2.529-.266l7.117-1.265a10.227,10.227,0,0,1,4.855-.067,25.842,25.842,0,0,1,3.9,2.079c.3.156.591.3.89.422.109.046.22.1.332.139l.153.059.357.131c.128.046.256.093.385.131.181.059.36.11.541.16.123.038.248.067.374.1h.025l.357.084h.086l.265.055c.128.03.257.055.388.076q.427.08.853.139c.46.067.923.118,1.394.16l.463.042.463.034,1.394.093h.257a4.805,4.805,0,0,0,1.735-.135,2.552,2.552,0,0,0,.3-.105c.1-.042.179-.084.279-.135a6.535,6.535,0,0,0,2.34-3.5c.112-.316.215-.632.31-.957s.181-.653.259-.982c.1-.422.181-.822.254-1.244.022-.114.042-.228.059-.346s.056-.35.078-.527c.07-.485.123-.974.162-1.467,0-.156.025-.316.036-.472.025-.422.045-.814.056-1.227V213.5C918.029,213.154,918.009,212.7,918.009,212.269Zm-7.15-25.17c-.226-.32-.457-.628-.692-.919a3.718,3.718,0,0,1,.689.919Z" transform="translate(-646.559 -114.693)" fill="#464353"/>
      <path id="Path_787" data-name="Path 787" d="M734.239,308.683c-2.1-.392-4.183-1.783-6.255-1.1a8.537,8.537,0,0,0-3.45,2.892,62.859,62.859,0,0,0-9.7,16.759,11.62,11.62,0,0,0-.9,3.17,12.379,12.379,0,0,0,.385,3.913c1.908,8.521,5.987,15.637,7.845,24.183,1.952,8.989,1.274,18.812-.165,28.02a156.2,156.2,0,0,1-8.6,32.337,20.069,20.069,0,0,1-1.98,4.1c-1.015,1.476-2.379,2.53-2.981,4.461-.279.843-.36,1.8-.558,2.707-.558,2.53-1.908,4.7-2.039,7.365a24.163,24.163,0,0,0,.929,5.9,24.227,24.227,0,0,1-.2,10.161c-1.414,5.86-5.112,11.189-4.038,17.214,2.4-1.041,5.05-2.395,6.18-5.755a12.487,12.487,0,0,1,1.269-3.474c1.341-1.724,3.625-.164,5.05-1.75,1.076-1.206,1.116-3.676.636-5.574s-1.305-3.567-1.673-5.519c-.641-3.52.385-7.243.2-10.882-.089-1.686-.432-3.3-.457-4.979a14.613,14.613,0,0,1,2.733-8.537,23.743,23.743,0,0,1,5.477-5.127l7.3-5.481c2.647-1.982,5.547-4.4,6.414-8.664a26.2,26.2,0,0,0,.349-4.971c.248-25.511,4.476-50.508,8.679-75.218.653-3.828,1.316-7.673,2.287-11.35s2.87-6.628,3.837-10.043C745.2,302.447,740.07,309.788,734.239,308.683Z" transform="translate(-524.897 -187.069)" fill="#464353"/>
      <path id="Path_788" data-name="Path 788" d="M808,607.893c.644,5.9,1.037,11.931,1.344,17.931a152.268,152.268,0,0,1-15.915,16.839c-.312.291-.627.578-.943.843l-.025.2a1.326,1.326,0,0,0-.045-.139,5.745,5.745,0,0,0-2.1-3.128q-3.087-9.8-6.169-19.6a69.335,69.335,0,0,1-2.789-10.9,2.449,2.449,0,0,0-.033-.245c-.424-2.951-.522-6.016-.8-9.005a37.646,37.646,0,0,0-.761-5.034c-.335-1.455-.795-2.867-1.2-4.288a20.317,20.317,0,0,1-.943-5.422,5.213,5.213,0,0,0-.17-1.771,4.135,4.135,0,0,0-.761-1.113,5.822,5.822,0,0,1-.937-4.009c-1.673.131-2.616,2.85-3.288,5.156a33.938,33.938,0,0,1-2.387,6.324,9.872,9.872,0,0,1-2.644,3.326c-.092.067-.184.135-.279.194-2.329,1.552-5.048,1-7.571.3-2.206-.611-4.487-1.37-6.261-3.445l-.19-.228a11.832,11.832,0,0,1-1.394-2.251c-1.486-3.069-2.145-7.112-2.51-10.962-.033-.363-.067-.725-.1-1.088a61.137,61.137,0,0,1-.209-8.213c.034-.675.081-1.349.139-2.019.039-.422.081-.877.128-1.315a.179.179,0,0,1,0-.038c.073-.7.151-1.4.229-2.108a27.072,27.072,0,0,1,1.394-6.9,12.493,12.493,0,0,1,2.052-3.322c.3-.358.611-.7.923-1.029.508-.531,1.029-1.037,1.559-1.514a24.81,24.81,0,0,1,4.183-3.078c.346-.2.7-.392,1.049-.573a5.626,5.626,0,0,1,4.261-.51,14.964,14.964,0,0,0,3.815.337c3.271-.1,6.556-1.041,9.822-1.653,4.534-.843,9.406-.944,13.361,2.53.19.164.374.337.558.519a23.666,23.666,0,0,1,4.794,7.661c.279.637.521,1.29.761,1.952q.829,2.279,1.5,4.68a8.307,8.307,0,0,1,.416,2.53,4.872,4.872,0,0,1-.045.5c-.075.6-.226,1.18-.279,1.788-.176,2.3,1.116,4.216,1.6,6.4.312,1.425.279,2.951.455,4.452a30.985,30.985,0,0,0,1.551,5.9c.969,3.054,1.8,6.205,2.482,9.431.485,2.247.9,4.528,1.266,6.83q.178,1.109.337,2.222C807.533,603.883,807.782,605.882,808,607.893Z" transform="translate(-554.146 -321.008)" fill="#f86d70"/>
      <path id="Path_789" data-name="Path 789" d="M666.925,467.218v2.951l-.36-.008-.4-.008-4.484-.084-11.049-.219-3.1-.059-.8-.017-4.654-.089-6.559-.131L621.6,469.28l-24.148-.472-8.715-.169-3.5-.067-3.218-.063-2.005-.042-1.9-.038-14.08-.274-3.9-.076-.851-.017-.552-2.154-4.013-15.646-.733-2.858.558-3.373,2.51,2.53,1.545.291,25.436,4.781,4.774.9,10.123,1.906,9.917,1.863,3.888.729,23,4.326,6.428,1.21,5.321,1,18.919,3.558Z" transform="translate(-383.335 -248.397)" fill="#3f3d56"/>
      <path id="Path_790" data-name="Path 790" d="M555.98,444.03,561,463.845l107.367,3.373v-21.5Z" transform="translate(-384.777 -248.475)" fill="#504f60"/>
      <path id="Path_791" data-name="Path 791" d="M575.98,496.03l.837,121,3.9-.843-.837-120.157Z" transform="translate(-405.72 -272.845)" fill="#3f3d56"/>
      <path id="Path_792" data-name="Path 792" d="M1053.469,551.9h-.4a193.8,193.8,0,0,1-3.215,22.256l-1.269-22.345-.053-.953,4.691-.818.156-.025Z" transform="translate(-770.239 -329.115)" fill="#3f3d56"/>
      <path id="Path_793" data-name="Path 793" d="M764.524,461.04l-40.855,1.265-12.689-6.324L745,453.03Z" transform="translate(-496.551 -253.872)" fill="#fff"/>
      <path id="Path_794" data-name="Path 794" d="M821.854,458.673a3.1,3.1,0,0,0-1.115,1.2,6.142,6.142,0,0,0-.416,1.914l-.686,6.185a4.072,4.072,0,0,0,.053,1.716c.179.519.7.788.957.358a7.955,7.955,0,0,0,.5,3.487c.466.987,1.442,1.505,2.1.818a1.484,1.484,0,0,0,.951.957,1.074,1.074,0,0,0,1.1-.476c-.4.2-.424,1.117-.142,1.581a1.562,1.562,0,0,0,1.138.687,19.353,19.353,0,0,0,14.474-2.753c.432-.27-.706-8.327-.82-9.153-.279-1.944-.418-4.317-1.5-5.624-2.594-3.128-7.2-3.744-10.36-3.373A13.4,13.4,0,0,0,821.854,458.673Z" transform="translate(-608.614 -276.628)" fill="#fbbebe"/>
      <path id="Path_795" data-name="Path 795" d="M898.744,456.1c-10.087.291-20.383.54-30.01-4.026a46.044,46.044,0,0,1-.184,16.388l47.163,5.9c2,.249,10.291,1.665,12.24.953s-16.356-9.828-15.617-12.648c2.033-7.77,8.843-12.323,3.938-12.614C910.083,449.687,904.982,455.927,898.744,456.1Z" transform="translate(-640.451 -273.139)" opacity="0.1"/>
      <path id="Path_796" data-name="Path 796" d="M899.744,458.1c-10.087.291-20.383.54-30.01-4.026a46.045,46.045,0,0,1-.184,16.388l47.163,5.9c2,.249,10.291,1.686,12.24.953s1.492-4.347,2.231-7.167c2.033-7.77-9-17.8-13.91-18.1C911.083,451.687,905.982,457.927,899.744,458.1Z" transform="translate(-641.172 -274.258)" fill="#464353"/>
      <path id="Path_797" data-name="Path 797" d="M871.158,465.673a3.1,3.1,0,0,1,1.116,1.2,6.225,6.225,0,0,1,.418,1.914l.686,6.185a4.114,4.114,0,0,1-.053,1.716c-.179.519-.7.788-.957.358a8,8,0,0,1-.5,3.487c-.466.987-1.442,1.505-2.1.818a1.483,1.483,0,0,1-.951.957,1.074,1.074,0,0,1-1.1-.476c.4.2.427,1.117.145,1.581a1.567,1.567,0,0,1-1.141.687,19.345,19.345,0,0,1-14.471-2.753c-.432-.27.7-8.327.82-9.153.279-1.944.418-4.317,1.5-5.624,2.591-3.128,7.2-3.744,10.36-3.373A13.4,13.4,0,0,1,871.158,465.673Z" transform="translate(-631.527 -280.546)" fill="#fbbebe"/>
      <path id="Path_798" data-name="Path 798" d="M672.593,391.214a31.072,31.072,0,0,0-2.451,5.751c-1.141,4.014-.973,8.559-.784,12.918a10.8,10.8,0,0,0,.558,3.6,5.081,5.081,0,0,0,1.456,1.876c2.415,2.074,5.243,2.694,8,3.158a98.606,98.606,0,0,0,12.728,1.294c10.547.388,21.256-.915,31.53,2.7-1.272-2.922-1.269-6.788-.558-10.118a41.6,41.6,0,0,1,3.422-9.086c-4.7-2.251-9.744,1.265-14.669.915-5.056-.358-9.736-4.777-14.8-4.773a8.973,8.973,0,0,1-3.252-.19,3.666,3.666,0,0,1-2.178-3.242c1.35.46,2.63-1.286,3.188-3.2s.658-4.077,1.2-6c1.347-4.794,4.986-7.015,7.251-10.962a4.329,4.329,0,0,0,.683-2.188,4.41,4.41,0,0,0-.558-1.885c-1.882-3.794-4.719-5.9-7.075-8.854-.82-1.029-2.474-4.907-3.394-5.266-1.707-.662-3.154,3.065-4.264,4.882Q680.225,376.353,672.593,391.214Z" transform="translate(-501.215 -220.568)" fill="#464353"/>
      <path id="Path_799" data-name="Path 799" d="M882.39,434.81a12.768,12.768,0,0,1,1.866,2.8,6.8,6.8,0,0,1,.583,3.769c-.178-2.511.772-4.894,2.323-5.831Z" transform="translate(-653.641 -265.033)" opacity="0.07"/>
      <g id="Group_18" data-name="Group 18" transform="translate(230.421 48.468)" opacity="0.1">
        <path id="Path_800" data-name="Path 800" d="M932.817,167.278q-.492-1.977-1.132-3.858a5.074,5.074,0,0,0-.814.316q.718,1.8,1.291,3.723A3.294,3.294,0,0,1,932.817,167.278Z" transform="translate(-915.813 -163.42)"/>
        <path id="Path_801" data-name="Path 801" d="M995.87,212c.075.093.148.2.22.3-.005-.027-.012-.054-.02-.08Q995.976,212.11,995.87,212Z" transform="translate(-962.686 -191.519)"/>
        <path id="Path_802" data-name="Path 802" d="M894.168,212.872c.145-.173.279-.354.435-.523l-.045-2-2.978-.046a3.027,3.027,0,0,0-.711,2.53Z" transform="translate(-886.908 -190.535)"/>
        <path id="Path_803" data-name="Path 803" d="M916.7,285.475a6.518,6.518,0,0,1-2.34,3.5,4.322,4.322,0,0,1-2.555.363c-2.939-.181-5.929-.379-8.706-1.851a24.843,24.843,0,0,0-3.9-2.083,10.174,10.174,0,0,0-4.855.072l-7.117,1.265c-2.1.371-4.44.649-6.116-1.3-.959-1.113-1.578-2.846-2.63-3.74-.443-.379-.97-.624-1.258-1.265a4.463,4.463,0,0,1-.279-1.564c-.022-.443-.036-.885-.047-1.328q-.045,1.929.047,3.858a4.464,4.464,0,0,0,.279,1.564c.279.637.814.881,1.258,1.265,1.051.894,1.673,2.627,2.63,3.74,1.673,1.948,4.016,1.686,6.116,1.3L894.338,288a10.175,10.175,0,0,1,4.855-.072,25.486,25.486,0,0,1,3.9,2.083c2.789,1.471,5.767,1.686,8.706,1.851a4.355,4.355,0,0,0,2.555-.363,6.518,6.518,0,0,0,2.34-3.5,25.968,25.968,0,0,0,1.2-9.465,23.4,23.4,0,0,1-1.2,6.935Z" transform="translate(-876.877 -229.427)"/>
      </g>
      <path id="Path_804" data-name="Path 804" d="M937.56,179l3.9,5.481S938.118,182.373,937.56,179Z" transform="translate(-690.216 -123.964)" opacity="0.1"/>
    </g>
    <g id="Path_805" data-name="Path 805" transform="translate(0 823)" fill="rgba(19,78,244,0.13)">
      <path d="M 337.175537109375 258.3504333496094 L 1.469617247581482 -2.361809492111206 L 1450.34130859375 -3.838287830352783 L 1919.073974609375 256.5021667480469 L 337.175537109375 258.3504333496094 Z" stroke="none"/>
      <path d="M 1450.212158203125 -3.338165283203125 L 2.926513671875 -1.86328125 L 337.346435546875 257.8502197265625 L 1917.148071289062 256.0044250488281 L 1450.212158203125 -3.338165283203125 M 1450.470703125 -4.338409423828125 L 1921 256.9999084472656 L 337.0042724609375 258.8506164550781 L 0.012451171875 -2.860321044921875 L 1450.470703125 -4.338409423828125 Z" stroke="none" fill="#707070"/>
    </g>
  </g>
</svg>
